<?xml version="1.0" standalone="no"?>
<!DOCTYPE svg PUBLIC "-//W3C//DTD SVG 1.1//EN" "http://www.w3.org/Graphics/SVG/1.1/DTD/svg11.dtd" >
<svg xmlns="http://www.w3.org/2000/svg" xmlns:xlink="http://www.w3.org/1999/xlink" version="1.1">
<metadata></metadata>
<defs>
<font id="arkipelagoregular" horiz-adv-x="428" >
<font-face units-per-em="1000" ascent="750" descent="-250" />
<missing-glyph horiz-adv-x="331" />
<glyph horiz-adv-x="0" />
<glyph horiz-adv-x="333" />
<glyph horiz-adv-x="0" />
<glyph horiz-adv-x="0" />
<glyph unicode="&#xd;" horiz-adv-x="331" />
<glyph unicode=" "  horiz-adv-x="331" />
<glyph unicode="&#x09;" horiz-adv-x="331" />
<glyph unicode="&#xa0;" horiz-adv-x="331" />
<glyph unicode="!" horiz-adv-x="405" d="M323 749q18 5 53 -18t26 -45q-4 -10 -24 -35.5t-59.5 -86.5t-84.5 -150q-97 -187 -104 -225q-1 -13 -11.5 -23t-25.5 -7q-14 2 -20.5 7.5t-6 30t15.5 70.5q40 129 115 279q7 13 24.5 48.5t27.5 54.5t25 44.5t27 39t22 16.5zM15 68q18 6 46.5 -1.5t42.5 -23.5 q12 -17 10 -25t-15 -21q-11 -11 -27.5 -15t-28.5 1q-6 3 -10 8t-5.5 9t-3 11.5t-2.5 9.5q-1 1 -4 8.5t-5 12t-3.5 11t0 10.5t5.5 5z" />
<glyph unicode="&#x22;" horiz-adv-x="492" d="M240 611q1 -15 -10 -52q-10 -35 -48 -66.5t-54 -33.5q-22 -4 -33 13.5t7 32.5q1 1 7.5 0.5t15 4t17.5 17.5q15 24 7 76l-2 9q-9 30 2 39q19 14 42.5 7.5t38.5 -24.5q11 -14 10 -23zM380 634q11 -14 10 -23q1 -15 -10 -52q-10 -35 -48 -66.5t-54 -33.5q-22 -4 -33 13.5 t7 32.5q1 1 7.5 0.5t15 4t17.5 17.5q15 24 7 76l-2 9q-9 30 2 39q19 14 42.5 7.5t38.5 -24.5z" />
<glyph unicode="#" horiz-adv-x="500" d="M406 309q-20 -5 -42 -6q-6 -14 -16 -40.5t-14 -36.5q39 1 46 5q9 5 23 0.5t19 -18.5q1 -2 6.5 -10.5t5 -12.5t-4 -11t-19 -12.5t-42.5 -10.5q-8 -2 -18 -3t-23 -2.5t-21 -2.5q-30 -81 -30 -97q1 -12 -8 -21t-23 -7q-13 2 -19 7t-11 27.5t5 66.5q2 4 3 10.5t2 10.5l-58 -2 q-17 0 -43 -2q-28 -77 -28 -90q1 -12 -8 -21t-23 -7q-13 2 -19 7t-10.5 27.5t5.5 66.5q0 8 3 15q-22 3 -36 15q-12 8 -7.5 43.5t25.5 37.5q20 2 44 -3l21 60q-31 2 -45 15q-12 8 -7.5 43.5t25.5 37.5q14 1 58 -5q25 72 37 87q8 9 19 13q15 5 45.5 -15.5t24.5 -39.5 q-4 -13 -28 -51h80q13 40 21.5 62t21 43.5t25.5 25.5q15 5 45.5 -15.5t24.5 -39.5q-4 -15 -37 -72q15 1 17 3q9 5 23 0.5t19 -18.5q1 -2 6.5 -10.5t5 -12.5t-4 -11t-19 -12.5t-42.5 -10.5zM154 224h94q4 14 25 74q-30 0 -68 -2q-4 0 -12 -0.5t-12 -0.5z" />
<glyph unicode="$" horiz-adv-x="525" d="M460 582q35 -24 42.5 -62t-14.5 -47q-15 -7 -41 2l-38 19q-87 -151 -90 -157l40 -23q28 -18 45 -58t17.5 -84.5t-29.5 -86t-88 -58.5q-84 -24 -134 -20q-2 -8 -3.5 -14.5t-2.5 -11t-1 -5.5q0 -12 -4.5 -19.5t-17.5 -5.5q-13 3 -24 21t-8 51q-44 23 -65 85q-18 61 11 110 q16 25 26 18q4 -3 4 -13q0 -85 47 -119q9 22 22.5 52.5t32 72.5t29.5 67q-110 87 -83 174q21 70 88 108t149 32q26 40 39 44q13 3 41 -15t21 -35q-1 -3 -11 -22zM283 249l-8 5l-24 -48q-36 -75 -54 -123q13 0 28 3q50 8 79.5 35.5t25 63.5t-46.5 64zM308 492l17 32 q-67 12 -105 -29q-56 -58 34 -118q7 15 54 115z" />
<glyph unicode="%" horiz-adv-x="697" d="M534 216q1 -1 6.5 -6t9.5 -9.5t11 -12t11.5 -15t9.5 -17.5t7.5 -20.5t3 -22t-2.5 -24.5t-9 -26q-28 -59 -97 -97.5t-117 -28.5q-29 6 -37.5 31.5t0.5 54t27 47.5q102 110 147 120l11 3q-3 7 -8 12q-18 18 0 19q16 1 27 -8zM495 66q13 16 21 49q-26 -18 -53.5 -45 t-31.5 -36q-2 -6 8 -4q28 7 53 33zM635 768q18 5 47.5 -17.5t16.5 -43.5q-3 -5 -70 -87.5t-154.5 -196t-149.5 -204.5q-158 -230 -168 -283q-11 -33 -34 -30q-7 1 -13 6t-10.5 15.5t-5 25.5t6.5 38t21 50q35 65 166.5 263t181.5 266q49 71 78 109q-193 0 -205 4q-3 1 0 -9 q1 -5 7 -23q13 -43 13 -56q-1 -1 -1 -2q0 -24 -11 -47q-27 -59 -96.5 -97.5t-117.5 -28.5q-29 6 -37.5 31.5t0 54t26.5 47.5q101 110 147 120l12 3q-1 2 -2.5 4.5t-3.5 4.5l-3 3q-2 5 -1 6q-4 8 -2 11t19 8q12 4 80 10.5t143.5 13.5t84.5 8h3q20 20 32 23zM265 549 q12 12 21 49q-26 -18 -53.5 -45t-31.5 -36q-2 -4 4 -4q20 1 50 26z" />
<glyph unicode="&#x26;" horiz-adv-x="526" d="M500 573q7 -36 -8 -49.5t-65 -4.5q-17 3 -28 15t-16.5 24t-19 20t-34.5 4q-43 -9 -68.5 -46t-15.5 -59q27 -62 83 -72q29 -5 43.5 -16t11.5 -23q-5 -22 -36 -37.5t-62 1.5q-32 21 -66.5 16t-53.5 -34q-14 -23 -18.5 -46.5t9.5 -47t50 -32.5q47 -7 59.5 -7.5t37.5 8.5 t36 11q31 9 47.5 5t29.5 -35q8 -21 -23 -48.5t-83.5 -45t-99.5 -9.5q-15 -56 -15 -87q0 -13 -4.5 -21.5t-17.5 -7.5q-11 0 -22.5 11.5t-18.5 37.5t3 70q2 14 5 22q-48 29 -71 71.5t-18 87.5q9 75 55.5 114t84.5 36q-23 25 -28.5 75.5t9.5 74.5q41 75 163 104q35 91 59 100 q14 7 47.5 -11t27.5 -37q-3 -8 -30 -67q25 -12 42 -30t19 -35z" />
<glyph unicode="'" horiz-adv-x="332" d="M311 601q1 -15 -10 -52q-10 -35 -48 -66.5t-54 -33.5q-22 -4 -33 13.5t7 32.5q1 1 7.5 0.5t15 4t17.5 17.5q15 24 7 76l-2 9q-9 30 2 39q19 14 42.5 7.5t38.5 -24.5q11 -14 10 -23z" />
<glyph unicode="(" horiz-adv-x="287" d="M428 916q16 -6 31.5 -41.5t-0.5 -51.5q-2 -2 -31 -23t-70.5 -60t-76.5 -86q-66 -84 -115.5 -192t-63.5 -212q-24 -164 5 -306q13 -57 33 -100q1 -3 3.5 -9t3.5 -9.5t2.5 -8.5t1.5 -8t-1 -6.5t-3.5 -6t-6.5 -4.5q-13 -4 -43 27q-33 36 -55 144q-1 4 -4.5 20t-5.5 25 t-5.5 27t-5 32t-2.5 33t0 36q2 116 30 234q38 152 64 206q24 48 69 118q46 68 139 150q83 76 107 72z" />
<glyph unicode=")" horiz-adv-x="357" d="M222 877q14 -16 30 -79t22 -128q14 -123 -2 -240q-20 -200 -102 -350q-46 -88 -104 -150.5t-104 -94.5q-42 -28 -74.5 -36.5t-45.5 -3.5t-15 16q-8 22 25 33q31 13 64 37q94 74 163 190q55 93 83 205q30 116 32 243q0 110 -21 213q-5 25 -11 49.5t-10.5 39t-4.5 18.5 q-8 33 26.5 44.5t48.5 -6.5z" />
<glyph unicode="*" horiz-adv-x="340" d="M313 685q11 -8 15.5 -37t-11.5 -37q-7 -2 -35 -4t-69 -9q52 -56 64 -60q9 -4 13 -13t0 -21q-4 -7 -7.5 -9.5t-11.5 -3t-22.5 7t-36.5 23.5q-32 23 -36 26q-14 -52 -13 -62q1 -9 -5.5 -17.5t-17.5 -9.5q-10 0 -14.5 3t-9.5 19.5t1 53.5q2 30 5 44q-56 -14 -66 -21 q-6 -6 -17.5 -4.5t-17.5 10.5q-3 8 -4.5 15t12.5 18t46 26l14 6q-5 4 -12 11l-10 10l-8 8l-7 7t-5 6t-4 6t-2 5.5t-1.5 7t-0.5 7.5q0 13 25 31.5t37 8.5q6 -5 10.5 -11.5t13 -19.5t19.5 -27q0 4 1 5q3 12 6.5 27t5 21t4 14t5 11.5t6.5 7.5t10 7q10 8 39.5 -4t26.5 -29 q-2 -7 -11 -25.5t-18 -40.5q14 4 30.5 8.5t23 6.5t14.5 3t13.5 -0.5t12.5 -5.5z" />
<glyph unicode="+" horiz-adv-x="500" d="M442 270q1 -2 6.5 -10.5t5 -12.5t-4 -11t-19 -12.5t-42.5 -10.5q-36 -9 -118 -11q-35 -97 -35 -124q1 -12 -7.5 -21t-23.5 -7q-13 2 -18.5 7t-10.5 27.5t5 66.5l9 47q-43 -4 -74.5 -2t-45.5 15q-12 10 -7 45t26 37q16 2 57 -5t65 -7l10 29q4 12 10 30.5t9 27.5l7.5 22.5 t8.5 20.5t9 14.5t10.5 12t12.5 6.5q15 5 45.5 -14.5t24.5 -39.5q-5 -15 -25.5 -48t-29.5 -54l-2 -6q89 0 100 5q9 6 23 1.5t19 -18.5z" />
<glyph unicode="," horiz-adv-x="144" d="M128 46q11 -14 10 -23q1 -15 -11 -52q-11 -35 -47.5 -66t-54.5 -34q-22 -4 -33 13.5t7 32.5q2 1 8 0.5t14.5 4t17.5 17.5q17 22 8 76l-2 9q-9 30 1 39q20 14 43.5 7.5t38.5 -24.5z" />
<glyph unicode="-" horiz-adv-x="472" d="M57 211q-12 10 -7 45t26 37q16 2 57 -5t65 -7q174 0 190 6q9 6 23 1.5t19 -18.5q1 -2 6.5 -10.5t5 -12.5t-4 -11t-19 -12.5t-42.5 -10.5q-48 -10 -159 -12q-17 -1 -45 -3t-41 -2.5t-30 0.5t-27 4.5t-17 10.5z" />
<glyph unicode="." horiz-adv-x="199" d="M45 68q18 6 46.5 -1.5t42.5 -23.5q12 -17 10 -25t-15 -21q-11 -11 -27.5 -15t-28.5 1q-6 3 -10 8t-5.5 9t-3 11.5t-2.5 9.5q-1 1 -4 8.5t-5 12t-3.5 11t0 10.5t5.5 5z" />
<glyph unicode="/" horiz-adv-x="448" d="M414 798q17 5 49.5 -17.5t21.5 -43.5q-5 -11 -59.5 -89.5t-132 -194t-129.5 -204.5q-125 -215 -138 -283q-3 -10 -5.5 -15.5t-9 -10.5t-15.5 -4q-13 2 -23.5 14.5t-10.5 44.5t18 76q27 64 137 262t153 267q9 14 29 48t32.5 53.5t29 43.5t30 37t23.5 16z" />
<glyph unicode="0" horiz-adv-x="502" d="M509 571q21 -48 18 -124.5t-32 -145.5q-50 -117 -127 -196.5t-174 -101.5q-54 -26 -99 -2q-22 6 -40 35t-24 82t21 127q24 69 40.5 109t45.5 91.5t68.5 88.5t91.5 65q53 35 99 40q22 2 64 -24t48 -44zM407 315q31 64 36.5 119t-12.5 86t-54 31q-42 0 -73 -38 q-57 -47 -149 -265q-14 -30 -21 -57t-3 -50.5t22 -32.5q32 -16 47 -15.5t41 19.5q17 16 22 10q82 67 144 193z" />
<glyph unicode="1" horiz-adv-x="271" d="M296 658q15 5 48.5 -16t25.5 -39q-3 -6 -38 -61.5t-84.5 -141t-88.5 -165.5q-93 -191 -93 -239q-7 -30 -29 -27q-12 2 -22 13.5t-14.5 38.5t9.5 69q18 57 79.5 190t96.5 201l24 48q-21 2 -31 25q-16 41 -14 47q3 6 19 6q14 0 57 25.5t55 25.5z" />
<glyph unicode="2" horiz-adv-x="472" d="M473 387q-45 -61 -111.5 -129t-101.5 -98.5t-105 -90.5q25 0 78.5 -4t84.5 -1q37 4 56.5 8t24.5 7t14 10q7 5 16 -1t12.5 -19.5t-3.5 -34.5q-12 -29 -42 -39.5t-108 -12.5q-37 -1 -71 5t-70 5.5t-103 -16.5q-6 -11 -18 -6t-18 20q-13 13 -5 27q11 24 77 87t129 114 q73 60 139.5 141.5t68.5 125.5q1 49 -27.5 61.5t-82.5 -8.5q-22 -8 -45 -23.5t-35 -24t-30 -8.5t-39 16q-18 13 -23.5 28.5t-2.5 25.5t8 10q7 1 24 14t37.5 28t63 28t96.5 15q72 2 110 -46.5t36 -110t-34 -103.5z" />
<glyph unicode="3" horiz-adv-x="500" d="M470 334q19 -51 -6.5 -142.5t-101.5 -147.5q-49 -37 -123.5 -55t-121.5 -1q-71 26 -101.5 64.5t4.5 75.5q9 6 15 6.5t17 -7t19.5 -15.5t22.5 -19t27 -18q37 -22 101 -9t104 56q22 25 39 80t7 88q-10 32 -42 33t-76 -16q-2 0 -3.5 -0.5t-3.5 -1t-4 -1.5q-12 -4 -18 -2 q-26 -11 -34 7q-9 20 17 38q4 3 9 6q12 6 43 22t50 26.5t43 26.5t37 32.5t16 33.5q8 48 -18 60.5t-83 -8.5q-23 -8 -47.5 -23t-37.5 -23.5t-30.5 -8.5t-36.5 15q-15 13 -18.5 28.5t1 25t9.5 9.5q7 1 25.5 14t41 27.5t66 27.5t96.5 15q55 1 87 -28t37 -70t-8.5 -85.5 t-41.5 -72.5q-12 -12 -27 -21q37 -10 49 -42z" />
<glyph unicode="4" horiz-adv-x="427" d="M494 649q15 5 48 -16t25 -39q-3 -6 -37 -60.5t-82.5 -138.5t-87.5 -162q36 -19 27 -45q-6 -17 -29 -8l-21 6q-75 -162 -75 -199q-1 -12 -8 -20.5t-20 -6.5q-12 2 -22 13.5t-14.5 38.5t9.5 69q11 33 45 113q-39 2 -102 0q-46 -1 -106 -7q-14 -16 -28 -6q-10 6 -14.5 18 t4 37.5t36.5 56.5q21 23 61 57.5t68 57t79.5 62.5t55.5 43q103 80 154 102q19 30 34 34zM102 256q125 0 176 -4l99 207q-60 -35 -143 -96q-74 -56 -132 -107z" />
<glyph unicode="5" horiz-adv-x="528" d="M446 534q-53 -8 -167 -2q-23 -54 -57 -120q46 26 89 34t65 4.5t52 -12.5q97 -31 46 -215q-25 -101 -125 -182.5t-210 -77.5q-70 2 -106.5 33.5t-33.5 66t34 49.5t49 15t24.5 -8.5t19.5 -23.5t30 -23q25 -15 55.5 -9.5t56 20t58.5 42.5q33 27 54 81.5t12.5 107.5t-54.5 68 q-18 6 -50 -5.5t-69.5 -30.5t-49.5 -23q-22 -7 -40.5 2.5t-13.5 26.5q9 33 79 192q-6 12 -4.5 36t10.5 31q11 10 32 10q25 8 53 -11q43 -9 55 -9q137 -3 156 5q25 9 30 -8q3 -10 0 -21t-23 -24t-57 -19z" />
<glyph unicode="6" d="M297 582q54 26 85 22q19 -1 33 -23q11 -18 7.5 -33t-14 -24.5t-18.5 -6.5q-18 5 -52.5 -8.5t-55.5 -32.5q-28 -24 -45.5 -41t-49 -62.5t-54.5 -99.5q-36 -87 -30 -136.5t47 -69.5q39 -19 96 18.5t57 90.5q0 35 -18 54t-44.5 21.5t-46.5 0.5t-33 -6q-17 -6 -25 6 q-13 19 44 49l8 4q80 38 138.5 14t71.5 -86q11 -54 -21.5 -114t-73.5 -97t-71 -50q-80 -33 -163 22q-41 26 -60.5 112.5t5.5 145.5q47 104 123 196t160 134z" />
<glyph unicode="7" horiz-adv-x="346" d="M382 649q14 5 43.5 -16t20.5 -39q-3 -4 -44 -61t-97 -141.5t-102 -165.5q-100 -174 -115 -239q-2 -9 -4 -14t-7.5 -9.5t-14.5 -3.5q-12 2 -21 14t-11 38.5t16 68.5q21 56 91 182.5t119 208.5q21 33 36 62q-69 -9 -173.5 -5t-104.5 28v11v16t0.5 11t2 8t4.5 4.5t7.5 2 t10.5 -2.5q8 -3 66 2t144 14.5t114 12.5q10 10 19 13z" />
<glyph unicode="8" horiz-adv-x="432" d="M406 653q41 -9 60.5 -44t16 -74t-23.5 -66q-38 -55 -86 -107t-81 -59q64 -78 45 -153q-21 -81 -105.5 -135t-153.5 -39q-42 9 -61.5 44t-15.5 74t23 67q115 154 167 165q-64 78 -45 153q21 81 105.5 134.5t154.5 39.5zM251 146q32 39 1 114l-2 -2q-44 -22 -91 -64 t-54 -85q-5 -37 23 -44q43 -10 111 67zM383 510q12 28 -11 41q-32 19 -85 -26q-20 -18 -40 -43q-32 -39 -11 -108q44 17 87 58.5t60 77.5z" />
<glyph unicode="9" horiz-adv-x="422" d="M435 626q26 -3 35.5 -25t-2.5 -73q-2 -5 -16 -58.5t-27 -95t-33.5 -99t-47 -105t-54.5 -78.5q-74 -81 -117 -102t-103 -10q-35 6 -53 22t-17 32t5 30q5 12 15.5 10t20.5 -9.5t19 -18.5q5 -6 16 -7t29 5.5t38.5 21.5t46 47t49.5 77q35 64 75 168q-27 -39 -66 -71 q-33 -27 -75 -32t-65 17q-15 13 -24 49.5t1.5 94t49.5 108.5q27 35 65.5 57t74.5 28.5t64 6.5t46 -5q18 17 50 15zM203 344q20 -7 62.5 30.5t75.5 80.5q2 10 5 29q2 16 5 24l-8 4q-23 14 -68 -3t-75 -51q-24 -28 -24 -65.5t27 -48.5z" />
<glyph unicode=":" horiz-adv-x="240" d="M104 298q18 6 46.5 -1.5t42.5 -23.5q12 -17 10 -25t-15 -21q-11 -11 -27.5 -15t-28.5 1q-6 3 -10 8t-5.5 9t-3 11.5t-2.5 9.5q-1 1 -4 8.5t-5 12t-3.5 11t0 10.5t5.5 5zM45 68q18 6 46.5 -1.5t42.5 -23.5q12 -17 10 -25t-15 -21q-11 -11 -27.5 -15t-28.5 1q-6 3 -10 8 t-5.5 9t-3 11.5t-2.5 9.5q-1 1 -4 8.5t-5 12t-3.5 11t0 10.5t5.5 5z" />
<glyph unicode=";" horiz-adv-x="234" d="M124 296q18 6 46.5 -1.5t42.5 -23.5q12 -17 10 -25t-15 -21q-11 -11 -27.5 -15t-28.5 1q-6 3 -10 8t-5.5 9t-3 11.5t-2.5 9.5q-1 1 -4 8.5t-5 12t-3.5 11t0 10.5t5.5 5zM157 46q11 -14 10 -23q1 -15 -11 -52q-11 -35 -47.5 -66t-54.5 -34q-22 -4 -33 13.5t7 32.5 q2 1 8 0.5t14.5 4t17.5 17.5q17 22 8 76l-2 9q-9 30 1 39q20 14 43.5 7.5t38.5 -24.5z" />
<glyph unicode="&#x3c;" horiz-adv-x="514" d="M421 497q14 -7 18.5 -40.5t-14.5 -42.5q-15 -5 -56 -9.5t-65 -11.5q-25 -7 -56.5 -16t-52 -14.5t-34.5 -10.5q26 -9 67 -27t48 -21q15 -6 41.5 -17t37.5 -15.5t26.5 -13t23 -16t10.5 -16.5q5 -15 -13 -44.5t-38 -20.5q-16 6 -50 29t-56 33q-160 76 -174 77 q-12 0 -22.5 9.5t-8.5 23.5q0 3 -0.5 11.5t0.5 14t6 8.5q0 16 55 45q26 13 50 21.5t55.5 18t44.5 13.5q101 35 125 37q20 2 32 -5z" />
<glyph unicode="=" horiz-adv-x="472" d="M57 142q-12 10 -7 45t26 37q16 2 57 -5t65 -7q174 0 190 6q9 6 23 1.5t19 -18.5q1 -2 6.5 -10.5t5 -12.5t-4 -11t-19 -12.5t-42.5 -10.5q-48 -10 -159 -12q-17 -1 -45 -3t-41 -2.5t-30 0.5t-27 4.5t-17 10.5zM95 316q-12 10 -7 45t26 37q16 2 57 -5t65 -7q174 0 190 6 q9 6 23 1.5t19 -18.5q1 -2 6.5 -10.5t5 -12.5t-4 -11t-19 -12.5t-42.5 -10.5q-48 -10 -159 -12q-17 -1 -45 -3t-41 -2.5t-30 0.5t-27 4.5t-17 10.5z" />
<glyph unicode="&#x3e;" horiz-adv-x="535" d="M424 364q13 -3 21.5 -12t6.5 -23q0 -1 0.5 -15t-4.5 -18t-20 -3q-5 -9 -11 -11q-14 -6 -55 -13.5t-64 -16.5q-169 -61 -177 -69q-9 -9 -22.5 -9t-23.5 11q-2 2 -9.5 8t-9 10t-0.5 12t14 18t37 24q25 15 48 25.5t56 22.5t42 16q41 18 43 19q-12 6 -32 17.5t-32 16.5 q-12 6 -39.5 19.5t-37 18.5t-24.5 14.5t-22 17.5t-10 18q-5 15 16 42.5t40 18.5q14 -6 46.5 -32t54.5 -38q152 -86 168 -89z" />
<glyph unicode="?" horiz-adv-x="485" d="M395 727q100 -57 70 -191q-9 -39 -19 -63.5t-14.5 -32t-23.5 -25.5t-25 -24q-15 -18 -91.5 -70.5t-82.5 -73.5q-16 -47 -49 -67q-24 -14 -32 6q-7 22 8.5 64.5t39.5 80.5q10 16 47 43t72.5 59.5t47.5 65.5q16 45 17 78.5t-10 50.5t-23.5 25t-25.5 9q-28 2 -56.5 -13.5 t-49 -35.5t-47.5 -39.5t-52 -23.5q-36 -7 -53 12.5t-13 47.5t25 47q69 61 156 84q34 12 91 10t93 -24zM100 81q19 6 48 -1.5t42 -23.5q12 -17 10 -25t-15 -21q-11 -11 -27.5 -15t-29.5 1q-6 3 -9.5 8t-5 9t-3 11t-2.5 10q-1 2 -4 9t-5 11.5t-4 11t-0.5 10.5t5.5 5z" />
<glyph unicode="@" horiz-adv-x="777" d="M511 153q-27 -10 -56.5 5.5t-14.5 51.5q-16 -9 -34.5 -17t-40.5 -15.5t-26 -9.5q-22 -8 -55 15t-26 67q7 43 66 88.5t92 54.5q76 19 112 -20q5 -5 -0.5 -13t-14.5 -6q-14 0 -76.5 -41.5t-62.5 -61.5q4 0 84 35.5t85 33.5q11 -8 14 -21.5t-5 -23.5q11 0 -10 -25 q-6 -6 -8 -9q1 0 3 2q7 4 10 -2q44 20 85.5 65t38.5 100q-4 67 -82.5 107.5t-181.5 16.5q-116 -29 -187 -107t-67 -189q2 -98 79.5 -159.5t196.5 -40.5q51 8 92.5 28.5t64.5 39.5l23 18q9 2 1 -24q-13 -46 -49 -76q-93 -76 -236 -56q-64 10 -116 37.5t-92 85t-46 137.5 q-7 73 29 150t114.5 140t180.5 82q75 16 131.5 9t95 -23.5t63.5 -45.5t37.5 -56t16.5 -56q12 -80 -66.5 -170.5t-161.5 -100.5z" />
<glyph unicode="A" horiz-adv-x="567" d="M582 694q16 0 30.5 -3.5t29 -13.5t22 -25.5t7 -43.5t-12.5 -64q-29 -82 -107 -247q57 0 58 -22q1 -14 -23 -26q-11 -5 -66 -17q-118 -250 -120 -254q-23 -52 -27.5 -74.5t1.5 -29.5q2 -9 -6 -16.5t-23.5 -5t-30.5 17.5q-17 17 -22 39.5t4.5 58.5t35.5 86q24 45 79 161 q-140 -20 -187 -20q-29 -1 -62 4q-76 -112 -122 -213q-5 -11 -7.5 -30t-7.5 -28t-17 -6q-29 7 -52 29.5t-12 42.5q99 178 227 344t267 284q84 72 144 72zM444 287q97 222 132 337q-42 0 -139 -88.5t-202 -231.5l-34 -47q51 5 243 30z" />
<glyph unicode="B" horiz-adv-x="608" d="M486 317q63 -9 87.5 -39.5t17 -66.5t-34.5 -78q-13 -19 -48.5 -47.5t-89 -62t-129.5 -59.5t-153 -33q-68 -7 -111 0q-6 -15 -25 -50q-29 -40 -43 -39q-21 2 -32 42t-2 91q3 21 123.5 261t165.5 321q30 52 56 107t31 71q13 29 57 5q12 -7 19 -20.5t2 -21.5q-2 -2 -41 -78 q59 50 116 73t99 17.5t71.5 -27.5t39.5 -58q19 -66 -55 -156.5t-232 -169.5q93 22 111 18zM272 498q-90 -181 -126 -266l1 3q173 99 238 144q197 138 164 214q-12 26 -41 29.5t-61.5 -10t-69.5 -36.5t-62.5 -42.5t-42.5 -35.5zM35 -43q81 0 158.5 26.5t128.5 65.5t92 81.5 t49 75t0 46.5q-22 20 -128.5 0t-207.5 -66v-1q-15 -23 -92 -228z" />
<glyph unicode="C" horiz-adv-x="475" d="M565 748q29 9 70.5 -2.5t56.5 -39.5q15 -30 12 -46t-21 -15q-7 1 -20.5 10t-33 15t-47.5 1q-153 -30 -278.5 -142.5t-184.5 -267.5q-22 -52 -9 -115t53 -80q48 -16 108.5 -5t96.5 36q32 24 30 6q-4 -25 -53 -75q-43 -44 -85 -62q-42 -19 -97 -16.5t-85 26.5 q-15 12 -18.5 14.5t-20.5 19t-23 28.5t-16.5 36.5t-11.5 48.5t2 59.5t15 74.5q47 167 204 301t356 190z" />
<glyph unicode="D" horiz-adv-x="670" d="M543 750q46 6 88.5 -28t66.5 -92.5t28.5 -132t-24.5 -146.5q-55 -144 -201 -244t-299 -106q-51 -2 -80.5 4.5t-36 15t-3.5 19.5q2 8 23 10.5t44 1.5t40 2q82 15 147.5 46.5t111.5 76t76.5 89.5t55.5 101q51 114 31 192.5t-95 78.5q-107 0 -227 -111q-130 -260 -158 -337 q-14 -22 -36.5 -77t-31.5 -83q-10 -25 -28 -58q-28 -40 -43 -39q-22 2 -34 46t0 66q5 8 119 239t139 277q67 119 87 179q13 28 57 4q12 -6 19 -20t2 -22q-1 -1 -46 -86q3 3 23.5 24t26.5 26t24.5 22t30 23t29.5 16.5t36 15.5t38 7z" />
<glyph unicode="E" horiz-adv-x="406" d="M739 719q27 -8 19.5 -35t-40.5 -41q-17 -7 -33 -7.5t-43 3t-51 3.5q-9 0 -31 -1t-33 -2t-28.5 -3.5t-33 -8t-30.5 -13.5q-93 -54 -178 -161q95 4 268 39q19 13 33 -9q17 -27 -5 -55q-17 -21 -51 -31q-51 -14 -110.5 -19.5t-101.5 -3.5t-89 0q-44 -68 -73 -142 q-22 -52 -9 -115t53 -80q48 -17 110 -5.5t95 36.5q34 24 31 5q-4 -25 -52 -74q-45 -44 -87 -62q-41 -19 -96 -16.5t-85 26.5q-20 15 -28 21.5t-28.5 33.5t-27 53t-6.5 72.5t16 100.5q18 66 61 137q-9 -1 -20.5 -2t-19 -2t-12.5 -2q-15 -2 -24.5 11t-0.5 32q14 28 39.5 37.5 t95.5 11.5q70 89 163 161h-1q-19 -13 -36 7q-20 22 -1 47q15 19 50 28q24 7 227 23q9 0 39 2q126 9 165 0z" />
<glyph unicode="F" horiz-adv-x="427" d="M648 809q6 -6 8.5 -25t-15 -38t-61.5 -15q-36 2 -72.5 -24.5t-54.5 -61.5l-101 -193q71 11 184 40q18 12 29 -13q15 -34 -8 -66q-18 -26 -57 -34q-78 -16 -195 -16q-29 -54 -59 -116q-43 -90 -80 -175.5t-57.5 -131t-46.5 -87.5q-9 -12 -17 -18l-15 -30q-32 -40 -43 -39 q-21 2 -24.5 46.5t9.5 66.5q4 7 24.5 57.5t53.5 128t63 138.5q13 30 23 47l2 4q29 60 55 108q-2 0 -6 -0.5t-6 -0.5q-133 -11 -147 -14q-15 -2 -24.5 11t-0.5 32q14 31 45.5 40t117.5 9q39 0 56 1q57 145 61 202q2 47 40 108.5t83 84.5q22 11 43 18.5t37.5 11.5t33 3.5 t28 -1.5t24.5 -6.5t20 -9t17 -11.5t13.5 -11t11.5 -11z" />
<glyph unicode="G" horiz-adv-x="702" d="M575 688q-153 -30 -278 -141.5t-186 -267.5q-22 -53 -9 -117t54 -78q185 -60 418 324q3 25 8 37t13 7q3 -2 30.5 -10.5t44 -21.5t14.5 -33q-38 -245 -92 -396q38 0 76 -3q24 -3 23 -15q-2 -17 -48 -18q-8 0 -17 1q-26 2 -46 2q-22 -58 -50 -103q-128 -210 -404 -269 q-34 -8 -65.5 15t-41.5 63.5t11 93.5q43 92 167.5 154t291.5 76q55 147 74 317q-13 -23 -35 -53q-29 -41 -64 -82t-85.5 -91t-107.5 -81t-108 -31q-60 0 -92 26q-1 1 -11.5 9.5t-15 12.5t-15 15t-15.5 19t-13.5 23t-11.5 28.5t-6.5 33.5t-2.5 40.5t5 46.5t12 54 q49 167 205.5 301.5t354.5 189.5q28 9 70.5 -3.5t57.5 -39.5q14 -30 11.5 -45.5t-20.5 -14.5q-7 0 -20 9t-33 15.5t-48 0.5zM435 -122q21 32 39 73q-134 -20 -227 -83q-101 -68 -144 -141q-28 -49 -5 -55q3 -2 8 -1q54 3 163.5 61t165.5 146z" />
<glyph unicode="H" horiz-adv-x="591" d="M866 719q1 -5 -1.5 -8.5t-8 -7t-8.5 -7.5q-1 -2 -16.5 -21t-25 -32.5t-29 -40.5t-37.5 -56.5t-42 -69t-51 -89.5t-55 -106q-40 -77 -69.5 -140t-45.5 -103t-24.5 -65t-14.5 -45.5t-7 -23.5q-9 -26 -25 -34t-32 12q-32 43 18 154q6 13 16.5 41t28.5 77.5t31 83.5 q-52 -14 -112 -19.5t-102.5 -3.5t-89.5 0q-4 -5 -9 -16t-8 -17q-90 -187 -108 -283q-1 -14 -7 -23t-20 -7q-13 2 -24 15.5t-16 43t10 76.5q16 53 84 204q-57 -5 -74 -8q-15 -2 -24.5 11t-0.5 32q14 28 40 37.5t97 11.5q96 207 113 241q7 13 24 47.5t27.5 53.5t24.5 43.5 t25.5 37.5t21.5 16q17 5 51.5 -17.5t25.5 -43.5q-4 -9 -37 -65.5t-84.5 -146.5t-91.5 -165q117 4 290 40q4 4 13 4q64 165 113 245q67 108 100 151t50 39q19 -4 57.5 -24.5t38.5 -28.5z" />
<glyph unicode="I" horiz-adv-x="250" d="M465 715q19 2 33.5 -9t13.5 -24q0 -30 -83 -34h-7q-180 -311 -246 -445q-68 -139 -94 -224q32 3 37 4q31 7 43 -12q12 -20 -23 -40q-20 -11 -54 -18l-19 -3q-6 -24 -25 -20q-10 1 -22 13q-31 -3 -53 -3q-33 0 -40 19.5t8 38.5q15 23 67 21q1 16 10 46q19 63 107.5 258.5 t127.5 270.5q26 55 42 85q-7 -1 -19 -2t-16 -3q-18 -7 -36 11t-7 38q10 17 20.5 25.5t30.5 13.5q16 5 75 0q20 26 33 30q11 2 34.5 -9t36.5 -27q16 0 25 -1z" />
<glyph unicode="J" horiz-adv-x="379" d="M593 692q17 2 26 -28t-3 -49q-14 -20 -30 -25t-57 -5q-11 -20 -97 -196q-20 -40 -22 -43l-1 -4q-5 -10 -38 -96.5t-68 -172t-86.5 -167.5t-96.5 -100q-42 -18 -85 -14t-74 16t-45 26q-30 31 -35 84t20 66q4 2 19.5 -18t37.5 -43t40 -24q51 -6 94 20t61 60 q29 56 84.5 195.5t70.5 173.5q30 66 60 136.5t44 99.5q-81 8 -168 -4q-32 -8 -44 12q-14 21 20 41q22 13 60 20q103 21 160 25q3 1 12 1v1l15 28q5 6 9.5 9t10 3t8.5 -0.5t9 -2.5t7 -2q15 -1 27 -29q10 1 22 2t19 2z" />
<glyph unicode="K" horiz-adv-x="514" d="M597 559q43 -2 7 -63q-29 -48 -66 -74q-13 -8 -19 -8q-25 -3 -106.5 -42.5t-154.5 -90.5v-47.5t1 -47.5q0 -51 34.5 -88t62.5 -29q50 15 162 89q22 15 21 -4q-2 -30 -50 -80l-20 -19q-76 -68 -97 -81q-46 -31 -89 -24q-50 8 -96 80t-40 133q0 10 2 28h-1q-20 -21 -28 -26 q-84 -179 -84 -235q-2 -8 -2 -10t-2.5 -8.5t-5 -8t-7 -3.5t-11.5 -1q-13 2 -24 15.5t-16.5 44t9.5 79.5q20 65 109.5 261t132.5 283q7 13 24.5 48.5t27.5 54.5t25 44.5t27 39t22 16.5q18 5 53 -18t26 -45q-4 -9 -34 -60.5t-79 -136t-88 -157.5q113 79 221 136t153 55z" />
<glyph unicode="L" horiz-adv-x="454" d="M251 586q8 16 19 41.5t17.5 38.5t13.5 17q22 14 43 13.5t67 -19.5q16 -7 18 -18t-7 -24t-21 -25.5t-26 -27.5t-20 -24q-26 -42 -73 -127.5t-89.5 -164.5t-47.5 -88q-24 -48 -45 -122.5t0 -95.5q7 -6 22 -7t38 2.5t46 8t54.5 11t54.5 9.5q15 2 47.5 9t58 11t37.5 0 q23 -7 12 -36q-12 -36 -56 -52q-18 -6 -39 -7q-51 -1 -114.5 -16t-112.5 -25.5t-82 -3.5q-6 1 -22 3.5t-25 5.5t-20 8t-16.5 15t-5.5 25q3 82 80 259q18 45 45 104t48 100.5t55 109.5z" />
<glyph unicode="M" horiz-adv-x="860" d="M774 -119q-18 -8 -38.5 2t-22.5 24q-20 22 -32 67.5t-12 88.5q0 56 42 276q17 92 42 208q-25 -41 -86 -128.5t-129.5 -183t-83.5 -116.5q-14 -21 -28 -48t-20 -37t-20.5 -18t-38.5 -9q-45 -2 -51 75q-6 48 27 254q13 88 33 192q-44 -60 -157 -259t-125 -217 q-9 -13 -17 -31.5t-12.5 -32.5t-12 -26.5t-16 -18.5t-23 -5t-33.5 12q-25 13 -21.5 41.5t40.5 83.5q7 12 75 130t92 158q31 53 122.5 170.5t109.5 129.5q22 18 57 -1q15 -7 25 -15t15 -17t8 -15.5t2 -16.5t-2 -15t-4 -16t-4 -14l-36 -198q-8 -48 -28 -174q56 56 131.5 162 t129 184.5t66.5 84.5q29 14 66.5 -8.5t48.5 -78.5q5 -32 -9.5 -118t-37 -192.5t-28.5 -149.5q-4 -66 31 -113q4 -5 3 -18t-12 -30t-26 -23z" />
<glyph unicode="N" horiz-adv-x="535" d="M718 598q1 -16 -13 -41q-24 -42 -128 -216t-126 -212q-12 -21 -22.5 -47.5t-15.5 -37t-18.5 -18.5t-38.5 -9q-44 -2 -59 75q-10 51 0 254q5 102 13 192q-37 -59 -124.5 -251.5t-100.5 -214.5q-8 -13 -14.5 -32.5t-10.5 -34.5t-11 -29.5t-15 -21t-23 -6t-35 11.5 q-27 13 -26.5 41.5t31.5 83.5q9 16 65 136.5t72 151.5q24 51 103 163.5t97 126.5q10 8 19.5 9.5t16 -1t21.5 -9.5q35 -16 50.5 -33.5t14.5 -33t-4 -32.5q-1 -7 -4.5 -36.5t-8.5 -78t-10 -86.5l-19 -177q45 48 100 134.5t103.5 172t63.5 106.5q6 7 10.5 16t6.5 10 q14 6 26 -2.5t14 -23.5z" />
<glyph unicode="O" horiz-adv-x="665" d="M679 652q36 -65 42.5 -149.5t-23.5 -175.5q-49 -133 -170 -232.5t-259 -126.5q-34 -15 -80.5 -16.5t-79.5 13.5q-23 5 -30 19q-17 14 -27.5 24t-26.5 35t-22.5 51.5t-5 70t16.5 94.5q37 130 145.5 244t254.5 186q58 48 125 57q8 1 23 1l12 3q16 5 44.5 -18t48 -49.5 t12.5 -30.5zM576 344q51 120 31 202.5t-95 82.5q-46 0 -94 -23q-98 -57 -173 -146t-117 -197q-22 -52 -9 -115t53 -80q48 -16 108.5 -5t96.5 36q25 19 29 12q103 78 170 233z" />
<glyph unicode="P" horiz-adv-x="451" d="M408 657q63 41 128 51.5t111 -5.5t72.5 -50t19.5 -76q-8 -45 -44.5 -96t-100.5 -103t-168.5 -94t-229.5 -59q-5 -10 -17 -42q-24 -39 -68 -159q-9 -23 -28 -59q-29 -40 -43 -39q-22 2 -34.5 46.5t0.5 66.5q6 10 119.5 240.5t138.5 275.5q30 52 56 107t31 71q13 29 57 5 q12 -6 19 -20t2 -22q0 -1 -2.5 -5.5t-8 -14t-10.5 -19.5zM610 554q8 47 -12 64t-68.5 3t-84.5 -30t-96 -47q-77 -151 -128 -260q87 26 168 65t146 94.5t75 110.5z" />
<glyph unicode="Q" horiz-adv-x="653" d="M698 326q-40 -106 -127 -192t-197 -134q28 -34 64 -51q15 -7 33.5 -10t36 -2.5t37 4.5t34.5 8.5t32.5 11t26.5 10.5t20 9l12 6q12 5 11 -9q-2 -24 -25 -47q-26 -26 -91.5 -51.5t-126.5 -16.5q-96 15 -168 106q-1 0 -2 -1q-36 -15 -81 -16t-79 14q-25 6 -29 19 q-17 13 -27.5 23.5t-27 35t-23 51.5t-5 70.5t16.5 94.5q39 133 155 254q2 11 8 24q19 47 47 88.5t66 78t89 56t107 14.5q101 -9 133 -43q17 -13 32.5 -31t23 -32t4.5 -16q37 -67 43.5 -150.5t-23.5 -175.5zM466 701q-31 -7 -53 -19q28 7 67 9q75 5 97 -12q0 1 -1 1l-2 2 q-14 15 -49.5 19.5t-58.5 -0.5zM172 68q18 -8 40 -9q-5 11 -13.5 31t-9.5 22q-27 76 -34 213q-14 -26 -28 -62q-22 -52 -9 -115t54 -80zM406 111q104 81 169 233q23 47 29.5 154t-23.5 175q-1 -10 -27 -24.5t-63 -20.5q-1 0 -16 -3q-33 -6 -57 -19q-71 -41 -136 -104l-7 -30 q-12 -60 -4 -156t30 -165q5 -17 28 -75q28 9 47 23q26 18 30 12z" />
<glyph unicode="R" horiz-adv-x="584" d="M685 -197q15 5 16 -12q1 -23 -25 -40q-24 -14 -57 -8q-52 12 -125 105t-132 214q-35 70 -54 131.5t-20 89.5q-71 -23 -79 -25q-3 -6 -9 -18.5t-10 -19.5q-121 -247 -121 -319q-2 -12 -4 -18t-9 -12t-18 -4q-14 2 -26.5 17t-18.5 48.5t12 86.5q21 71 117 282.5t147 312.5 q6 11 19.5 38l21 42t20 39t21.5 38.5t19.5 30t19.5 24t17 11.5q18 5 58 -20.5t29 -48.5q-5 -11 -57 -100q64 61 121.5 89.5t97 24t66.5 -28t39 -63.5q14 -48 -21.5 -110t-130 -134t-232.5 -129q8 -49 13.5 -71t32 -87t73.5 -146q40 -70 86.5 -122.5t72.5 -71t30 -16.5z M363 542q-83 -145 -136 -250q206 116 292 181q153 116 124 183q-10 23 -31.5 28.5t-49 -5t-55 -25.5t-58 -39t-49.5 -40t-37 -33z" />
<glyph unicode="S" horiz-adv-x="444" d="M488 669q-19 0 -39 -11t-64 -49q-8 -7 -65 -54t-93 -79t-76.5 -79.5t-51.5 -83.5q-4 -13 -4 -23.5t2 -18t9 -14t13 -10.5t19 -9t21 -7.5t25 -6.5q122 -34 159 -68q54 -49 41 -110q-15 -75 -107.5 -160t-180.5 -89q-44 -2 -65 18t-19.5 50t10.5 57.5t22 44.5 q20 28 82 83.5t77 62.5q16 7 9 -7q-6 -15 -34 -51q-43 -56 -85 -125.5t-19 -69.5q41 -3 110 51t105 140q25 51 4 68q-26 21 -78 36l-15 4q-15 4 -21 5.5t-22.5 6t-25.5 8t-25 10t-26 12t-23 14t-21 16.5t-15.5 18.5t-11.5 21.5q-40 112 107 263q46 49 141.5 137.5 t112.5 98.5q20 10 48.5 12.5t59.5 -7.5q26 -11 34.5 -37t0 -47.5t-24.5 -21.5z" />
<glyph unicode="T" horiz-adv-x="313" d="M667 782q8 4 17.5 1.5t15 -17t0.5 -34.5q-10 -33 -43 -45t-119 -14q-16 0 -62 -2q-168 -286 -242 -438q-23 -49 -41 -90.5t-27.5 -68t-15.5 -49t-8 -33t-3 -21t-1 -11.5q0 -16 -9 -29t-30 -11q-13 0 -24 14t-16 44t10 77q21 61 110.5 242.5t144.5 286.5q17 32 39 77 q-185 -20 -315 -50q-7 -19 -28 -1q-24 20 -19 48q6 37 68 48q91 18 339 35q23 35 39 41q10 3 27.5 -8t26.5 -26q38 3 62 6q58 5 75.5 10.5t28.5 17.5z" />
<glyph unicode="U" horiz-adv-x="639" d="M844 824q14 5 40.5 -18t16.5 -43q-1 -2 -24 -40.5t-50 -86t-61.5 -108.5t-70.5 -128.5t-64 -124.5q-96 -201 -96 -273q-2 -11 -4 -18.5t-11 -15t-24 -6.5q-13 0 -24 14t-16 44t10 77q8 26 42 101q-119 -157 -188 -190q-91 -38 -154.5 -34.5t-97.5 40.5q-35 39 -53 87 t-12.5 113.5t43.5 131.5q47 82 110 206.5t66 129.5q13 24 39.5 52.5t46.5 37.5q33 15 55 3.5t19 -41.5q-3 -18 -11 -32t-24 -33t-23 -29q-164 -249 -194 -326q-13 -30 -11.5 -68.5t11.5 -74t32.5 -60t51.5 -25.5q62 -4 169.5 83t232.5 252q26 51 62.5 121.5t42.5 83.5 q8 15 24 48t26.5 53t24.5 43.5t26 37t22 16.5z" />
<glyph unicode="V" horiz-adv-x="336" d="M610 722q1 -16 -13 -41q-21 -36 -185.5 -311.5t-187.5 -316.5q-12 -21 -23 -48t-16 -37t-18.5 -18t-37.5 -9q-44 -2 -59 75q-8 40 -31 314l-18 252q-26 14 -19 62.5t27 62.5q10 8 19.5 9.5t16 -1t21.5 -9.5q34 -16 49.5 -34t14 -33t-2.5 -32q-2 -13 8 -261 q5 -106 12 -237q43 49 128 185.5t163.5 271t94.5 156.5q4 5 7 11.5t5.5 10t4.5 4.5q14 6 26 -2.5t14 -23.5z" />
<glyph unicode="W" horiz-adv-x="691" d="M846 692q26 -11 24.5 -40.5t-34.5 -85.5q-5 -11 -64.5 -134.5t-80.5 -164.5q-27 -54 -109.5 -177t-99.5 -140q-4 -4 -8 -6.5t-8.5 -3.5t-7 -1.5t-8 0.5t-7.5 1.5t-9 3t-9 3.5q-25 10 -39 22.5t-15 30.5t0 25.5t6 27.5q6 37 21 200q8 84 15 176q-52 -60 -119.5 -171.5 t-114.5 -194t-60 -88.5q-5 -4 -15 -5q-8 -25 -39 -24q-18 0 -32.5 19t-20.5 61l-2 30q-2 9 0 15q-4 94 2 314q1 98 6 205q-25 17 -14 63t31 61q11 7 21.5 7t15 -2t21.5 -11q25 -14 39 -27.5t17 -28t2 -22.5t-5 -25q-8 -27 -18 -259q-4 -105 -12 -235q-4 -17 -6 -51 q35 66 142 240.5t114 186.5q11 20 21 42t14.5 33t12 22t19 16t31.5 7q18 3 33.5 -13.5t23.5 -57.5q9 -46 -8 -256q-3 -38 -19 -194q40 65 138.5 272.5t107.5 223.5q8 14 15 33t10.5 33t10 27.5t14.5 20t22 6.5t34 -10z" />
<glyph unicode="X" horiz-adv-x="571" d="M741 690q21 -11 7.5 -40t-68.5 -86q-99 -114 -252 -284l31 -116l13 -48q49 72 71 44q19 -25 3 -83q-2 -9 -5 -17q-7 -21 -12.5 -48t-8.5 -37t-14.5 -18t-35.5 -9q-43 -2 -75 75q-15 38 -54 167q-77 -75 -162.5 -153.5t-101.5 -88.5q-5 -4 -10 -6t-8 -3.5t-7.5 -1.5 t-6.5 -0.5t-7 1t-6 2t-6.5 3t-6.5 2.5q-18 8 -26 19t-9.5 20t5.5 24t11 21.5t14 21.5q14 21 72 28q17 3 58 5q39 37 173 187q-13 41 -62 216l-29 102q-21 7 -28.5 35t-3.5 54.5t13 35.5q17 18 57 -1q29 -12 47 -24.5t25 -26.5t8.5 -23t1.5 -25q0 -15 59 -243 q32 36 75.5 85.5t70 80t39.5 43.5q14 14 28.5 33t24.5 33t21.5 27.5t22 20t24.5 6.5t30 -10z" />
<glyph unicode="Y" horiz-adv-x="438" d="M598 786q34 -54 -37 -181q-17 -30 -110.5 -251.5t-124.5 -265.5q-83 -117 -129.5 -166.5t-67.5 -43.5t-55.5 31t-30.5 35q3 8 16 18.5t32.5 24t56 50t76.5 87.5q78 102 217 426q-88 -133 -153 -226q-30 -42 -50 -55t-44 -11q-58 0 -78 60q-12 33 -53 207q-25 108 -34 150 q-22 10 -26.5 34t4.5 45.5t20 28.5q21 6 30.5 3.5t34.5 -14.5q41 -19 60.5 -37t19 -31.5t-1.5 -27.5q-4 -17 22 -156q8 -48 26 -137q15 -32 71.5 31.5t126 165t80.5 113.5l6 7q9 21 18 43l8 22q13 31 32.5 38.5t37.5 -17.5z" />
<glyph unicode="Z" horiz-adv-x="631" d="M690 705q22 -80 -40 -148q-14 -15 -149.5 -144.5t-214.5 -210.5h1l-86 -87q-46 -46 -83 -90q98 0 223.5 5t162.5 11q31 5 48 11t22 10t11 14q9 13 20 -3q14 -20 6 -59q-8 -40 -33.5 -55t-92.5 -17q-12 0 -65.5 -1.5t-95.5 -3t-98.5 -5t-107 -10.5t-88.5 -17 q-15 -26 -33 -18q-11 -3 -22 21q-20 45 4 79q10 15 29 23l9 13q36 46 123 149q19 22 152.5 149t220 222.5t51.5 99.5l-148 -15q-151 -16 -169 -23q-12 -6 -21 -8t-23.5 0t-32 17t-38.5 42q-9 11 -12.5 16t-9.5 15t-4.5 15t2.5 17q8 24 47.5 40.5t65.5 -11.5l164 10 q188 11 227 8q65 -3 78 -61z" />
<glyph unicode="[" horiz-adv-x="224" d="M556 824q1 -10 -1.5 -18.5t-11.5 -19t-32.5 -17.5t-58.5 -8q-20 -1 -95 8q-15 -27 -79 -134.5t-125 -214t-98 -182.5q-68 -139 -115 -278q108 -15 124 -11q26 5 32 -25q3 -21 -13.5 -39.5t-59.5 -16.5q-20 0 -103 13q-6 -13 -23 -11q-13 1 -24 16h-3q-10 2 -12 2 q-33 4 -33 39q0 8 7.5 15.5t7.5 12.5q1 10 19 16l8 34q19 65 120 290t138 294q60 120 116 208q-4 7 -4 21q0 8 7.5 16t7.5 13q1 13 24 16l13 -3q6 6 12 8q13 5 48 -17q149 -17 170 -11q33 7 37 -16z" />
<glyph unicode="\" horiz-adv-x="523" d="M-39 754q3 17 38 34t49 -2q2 -4 47 -95t108 -211.5t116 -210.5q135 -231 181 -258q24 -24 12 -41q-8 -10 -24 -13t-44.5 12t-57.5 53q-44 54 -162.5 245t-159.5 265q-6 11 -20 35t-22 38t-20 35.5t-18.5 36t-13 30.5t-9 27.5t-0.5 19.5z" />
<glyph unicode="]" horiz-adv-x="586" d="M498 860q16 5 51.5 -18.5t25.5 -43.5q-4 -8 -64 -108t-137 -235t-121 -225q-79 -159 -119 -291q13 -4 16 -23q3 -21 -14.5 -39.5t-58.5 -16.5q-16 1 -59.5 7.5t-94.5 10.5q-8 2 -11 2q-33 4 -33 39q0 8 7.5 15.5t7.5 12.5q1 12 24 17q70 -13 137 -20q1 19 10 53 q19 65 120 290t138 294q35 76 95 173q-15 1 -58 6.5t-76 9.5l-11 2q-33 3 -33 38q0 8 7.5 16t7.5 13q1 13 24 16q62 -15 191 -22q18 24 28 27z" />
<glyph unicode="^" horiz-adv-x="493" d="M406 448q9 -9 10.5 -21.5t-8.5 -24.5q-1 -1 -6.5 -10.5t-9 -10.5t-11.5 -0.5t-19.5 12t-28.5 33.5q-29 40 -61 100l-23 41q-5 -8 -15.5 -24.5t-17.5 -26.5q-7 -11 -17.5 -28t-16.5 -26t-14 -21.5t-13.5 -19t-12.5 -13.5t-13.5 -10.5t-13.5 -4.5q-16 -3 -40.5 20t-14.5 42 q8 14 37 43.5t43 48.5q19 27 34 48.5t24.5 36.5t12.5 19q-2 16 2 23q5 15 36.5 26t44.5 -7q7 -13 19 -53t23 -63q55 -117 70 -129z" />
<glyph unicode="_" horiz-adv-x="540" d="M51 -27q7 8 16.5 12t26 6t30 2.5t40.5 0.5t45 1q186 11 232 5q27 -4 43 -8.5t20 -11t4.5 -10t-4 -12t-5.5 -11.5q-11 -30 -41 -20q-19 4 -262 -13q-24 -1 -64.5 -11t-56.5 -9q-21 0 -27.5 34.5t3.5 44.5z" />
<glyph unicode="`" horiz-adv-x="362" d="M224 633q4 -4 11 -10.5t10 -10t7 -8t5 -8t0 -6.5q-2 -11 -17 -14.5t-33 1.5q-37 9 -77 64q-31 43 -23 64q5 14 16 23t19.5 9t12.5 -3l1 -1v-2q9 -29 31 -57.5t37 -40.5z" />
<glyph unicode="a" d="M256 257q-13 0 -76 -41.5t-63 -61.5q4 0 84.5 35.5t84.5 33.5q12 -9 15 -22t-6 -23q-30 -36 -24 -37q2 0 10 5q16 11 109.5 46t133.5 48q18 6 17 -4q-3 -19 -43 -50q-9 -7 -19 -13q-37 -23 -119 -65.5t-105 -51.5q-28 -10 -56.5 5t-15.5 52q-15 -9 -100 -42 q-23 -8 -55.5 14.5t-25.5 67.5q7 44 65 89.5t92 53.5q78 19 113 -20q5 -5 -1 -13t-15 -6z" />
<glyph unicode="b" horiz-adv-x="471" d="M378 723q12 -6 19 -20t2 -22q-7 -12 -57 -106.5t-114 -227t-87 -200.5q54 69 119.5 121t106.5 52q45 0 66 -31t13 -79q-5 -27 -18 -57t-36.5 -64t-63 -60t-88.5 -33q-94 -15 -131 12q-17 12 -4 19q7 4 21 3q45 -5 100 35.5t84.5 86.5t15.5 56q-12 8 -68 -30.5t-104 -89.5 q-27 -29 -58.5 -76.5t-52 -74.5t-33.5 -26q-22 2 -34.5 46.5t0.5 66.5q6 10 119.5 240.5t138.5 275.5q30 52 56 107t31 71q14 30 57 5z" />
<glyph unicode="c" horiz-adv-x="406" d="M195 341q25 5 56.5 -3t42.5 -30q8 -15 9 -26t-3 -16.5t-13 -4.5q-5 0 -12 8t-14.5 10t-30.5 -10q-33 -19 -83 -77t-62 -90q-13 -36 3.5 -52.5t67.5 0.5q58 18 155.5 69t168.5 100q17 10 16 -3t-20 -39q-21 -30 -176.5 -118.5t-200.5 -94.5q-34 -5 -62.5 13.5t-40.5 48.5 q-26 64 0 114q18 38 91 115.5t108 85.5z" />
<glyph unicode="d" horiz-adv-x="410" d="M528 613q0 -1 -17 -28t-40.5 -67.5t-50 -88.5t-51.5 -101.5t-40 -96.5q-28 -73 -38 -95q13 5 53 23.5t72 31.5t45 13q31 -2 -34 -52q-9 -7 -28 -21q-36 -27 -48 -38q-82 -72 -121 -67q-20 3 -34.5 14t-17.5 24q-4 11 -6 32l-2 20q-19 -19 -54.5 -39t-63.5 -17 q-14 2 -24 8.5t-14 13.5t-7.5 15t-4.5 9q-2 7 -2 19.5t11 35t30 42.5q32 34 87.5 68.5t95.5 44.5q29 7 48 -12l91 168q67 119 87 179q13 29 57 4q12 -6 19 -20t2 -22zM109 152q3 1 18 5.5t26 8.5t26.5 12t28.5 17l10 7l22 41l-22 -6q-13 -4 -38.5 -24.5t-47.5 -40.5t-23 -20 z" />
<glyph unicode="e" horiz-adv-x="355" d="M349 153q44 26 42 5q-2 -19 -27 -39q-2 -2 -5 -4q-34 -21 -131 -68.5t-143 -57.5q-50 -11 -75 17t-18 63q7 34 36 86.5t66 87.5q63 59 114 52q21 -2 44.5 -31t27.5 -59q2 -27 -27 -50t-71 -43q-4 -2 -18.5 -9t-19.5 -9t-16 -5t-17 -1t-14 7.5t-14 15.5q-6 -8 -9 -17 t4.5 -17.5t31.5 -7.5q39 2 113.5 28t125.5 56zM191 211q-34 -13 -63 -48q19 5 39.5 18t23.5 30z" />
<glyph unicode="f" horiz-adv-x="316" d="M269 106q79 11 73 -5q-2 -6 -11.5 -18t-35 -28t-56.5 -21q-30 -6 -123 -21q-34 -66 -64.5 -135t-67.5 -159.5t-39 -96.5q-11 -27 -11.5 -49.5t5 -33t5.5 -20t-12 -17.5q-30 -20 -62 4.5t-26 83.5q6 82 162 407q-3 0 -7.5 -0.5t-5.5 -0.5q-25 0 -34 39t11 47l12 4.5t9 2.5 t7.5 0.5t11 -0.5h16.5q1 0 9.5 0.5t15.5 0.5l8 16q53 112 109.5 198.5t94.5 97.5q28 6 68.5 -20.5t29.5 -61.5q-2 -7 -33.5 -21t-48.5 -33q-61 -70 -118 -170q80 6 108 10z" />
<glyph unicode="g" horiz-adv-x="438" d="M346 122l41 9q21 2 19 -6q-4 -16 -57 -35q-9 -2 -16 -6q-47 -130 -75 -177q-105 -179 -335 -228q-44 -10 -73.5 35.5t-7.5 110.5t136.5 145t285.5 130q13 37 33 116q2 8 2 11q-78 -54 -173 -104q-29 -15 -57.5 7.5t-24.5 45.5q3 19 48 55.5t84 60.5q9 5 18.5 8t17.5 4 t18 0.5t15.5 -1.5t13.5 -3t10 -2q16 -5 12 -14.5t-14 -12.5q-32 -13 -73 -50q-23 -21 -10 -19q3 0 8 2q39 16 116 82q4 22 11 17q1 0 16.5 -6.5t23 -11t15.5 -14.5t7 -23q-7 -38 -35 -126zM186 -73q34 56 60 122q-123 -53 -215 -113q-87 -58 -125 -130q-25 -48 -5 -54 q2 -1 6 -1q25 2 73.5 20t111 60.5t94.5 95.5z" />
<glyph unicode="h" horiz-adv-x="499" d="M308 652q12 -6 19 -20t2 -22q-7 -10 -56.5 -98.5t-113 -214.5t-87.5 -194q53 62 143.5 120.5t127.5 56.5q36 -2 48 -26t-6 -67q-33 -69 -20 -76q5 -2 15 1q44 12 140 77q19 12 18 -4q-2 -28 -50 -75l-10 -10q-42 -38 -59.5 -52.5t-46.5 -28t-55 -9.5q-40 6 -48 60t20 98 q-12 8 -66.5 -26.5t-101.5 -84.5q-34 -36 -47.5 -50.5t-34.5 -34t-33.5 -26t-22.5 -5.5q-22 2 -34.5 46.5t-0.5 66.5q5 9 98 189t118 226q67 119 87 179q13 29 57 4z" />
<glyph unicode="i" horiz-adv-x="253" d="M320 185q29 17 32 3q3 -12 -20 -33q-35 -30 -131 -99t-121 -75q-30 -9 -53 15.5t-19 65.5q4 39 30 103t47 89q27 33 42 33q14 0 35.5 -23.5t19.5 -35.5q0 -4 -1 -7t-2 -5t-4 -4l-4.5 -3t-7 -4t-8.5 -5q-16 -12 -45 -76q-28 -60 -9 -55t102 50t117 66zM208 350 q-9 -7 -23 -13t-29 -5t-20 12q-11 19 -14.5 41t6.5 28q45 16 59 16q8 1 15 -6t15.5 -21t12.5 -18q3 -4 4 -7.5t-2 -7t-6 -6t-9 -6.5t-9 -7z" />
<glyph unicode="j" horiz-adv-x="237" d="M148 347q9 0 22 -2t29.5 -7t25.5 -16t4 -26q-9 -28 -110 -251q-5 -15 -27.5 -54t-34.5 -56q-73 -125 -141 -182t-146 -74q-60 -13 -116 49t-25 140q38 98 146 164q69 41 104 38q27 -2 -6 -33q-8 -8 -19 -16q-95 -71 -133 -167q-26 -65 -3 -85q6 -5 14 -5q70 0 139.5 69.5 t156.5 249.5q25 57 49 121.5t27 71.5q2 4 12 27.5t17 33.5t15 10zM275 523q18 -20 21 -47.5t-11 -41.5t-34 -19t-36 2q-7 4 -12 10t-7 11.5t-4.5 13.5t-4.5 12q-1 4 -4.5 11.5t-6.5 14.5t-5 14t-1 12t6 7q73 26 99 0z" />
<glyph unicode="k" horiz-adv-x="342" d="M368 342q30 -2 1 -43q-24 -34 -46 -44q-4 -1 -6 -1q-13 0 -60.5 -23.5t-93.5 -53.5l9 -36t15 -51q10 -27 31 -41t49 -6t87 45q15 9 14 -5q-1 -25 -40 -62l-6 -6q-32 -30 -52 -39.5t-45 -9.5q-42 0 -83 58t-41 102q-22 -22 -29 -26q-33 -79 -50.5 -111t-33.5 -30 q-20 2 -28.5 41.5t4.5 61.5q6 11 46 93.5t92 189t81 162.5q18 36 31.5 72t20.5 60t9 28q6 13 23 15t47 -12q12 -6 19 -20t2 -22q-5 -5 -44 -72.5t-92 -170.5t-82 -174q75 54 147 93.5t104 37.5z" />
<glyph unicode="l" horiz-adv-x="218" d="M457 683l-17 -21q-16 -21 -24.5 -33t-28.5 -40t-37.5 -57t-41.5 -69t-51 -89.5t-56 -106.5q-40 -77 -69.5 -139.5t-45.5 -103t-24.5 -64t-14.5 -45.5t-7 -24q-9 -26 -25 -34t-32 12q-32 43 18 154q172 417 248 541q66 107 99.5 150.5t50.5 40.5q18 -4 47 -22.5t29 -27.5 q1 -5 -1.5 -8t-8 -6.5t-8.5 -7.5z" />
<glyph unicode="m" horiz-adv-x="668" d="M689 169q16 8 15 -3q-3 -21 -41 -56q-2 -1 -4 -3q-30 -26 -94.5 -72t-82.5 -53q-16 -11 -42.5 -4t-26.5 32q-16 20 -8 49q14 47 26 79l18 53q-18 -19 -78.5 -68.5t-72.5 -61.5q-8 -8 -16.5 -18.5t-12.5 -14t-10.5 -6.5t-16.5 -3q-22 1 -38 15.5t-15 36.5q0 17 25 69 q9 20 24 46q-21 -20 -80 -78.5t-71 -69.5l-8 -8t-6.5 -7t-5 -5t-5.5 -3.5t-5 -1t-6 0.5t-7 3t-9 5q-17 10 -24 37t-8 28q-6 6 3.5 27t25.5 39q4 5 35.5 43t56 69.5t28.5 39.5q4 9 7 14.5t7.5 12t9 9t9.5 0.5q27 -7 33 -13q18 -12 6 -35q-3 -4 -16.5 -27.5t-23.5 -38.5 l-32 -51q18 18 73 63t63 49q22 14 54 -5q22 -13 27 -23t-2 -18l-23 -40l-17 -30q111 79 139 92q14 5 43.5 -11t27.5 -37q0 -26 -52 -149q2 -12 8 -6q23 19 196 108z" />
<glyph unicode="n" horiz-adv-x="506" d="M195 355q12 -6 18 -18.5t1 -20.5q-48 -64 -92 -192q31 22 83 72.5t91 83t57 31.5q33 -2 43.5 -24t-5.5 -60q-26 -56 -24 -109q2 -29 15 -26q43 13 127 70q18 10 16 -4q-2 -27 -47 -70q-4 -3 -7 -6q-38 -35 -54 -48t-42 -25.5t-50 -8.5t-34.5 45t-6.5 89.5t20 74.5 q-6 4 -30 -21t-66.5 -76t-60.5 -70q-43 -45 -65.5 -57.5t-44.5 -10.5q-19 2 -31 42.5t0 59.5q2 3 14 20.5t21 37t23 55.5q12 31 26.5 69.5t24 62t11.5 29.5q6 13 24 15.5t45 -10.5z" />
<glyph unicode="o" horiz-adv-x="244" d="M156 286l6 -5q7 -5 10.5 -8t11.5 -10t13 -13l12.5 -15t12 -17t9 -18.5t6.5 -20.5t1.5 -22t-3.5 -24q-16 -59 -76.5 -98t-110.5 -28q-30 6 -44.5 31.5t-11.5 53.5t17 48q79 111 121 120l11 3q-5 8 -11 12q-24 19 -3 19q16 1 29 -8zM91 104q-2 -11 23 2q21 12 34 30 q11 14 11 48q-21 -19 -43.5 -45.5t-24.5 -34.5z" />
<glyph unicode="p" horiz-adv-x="529" d="M556 160q12 -7 2 -13.5t-41 -16t-39 -12.5q-8 -4 -117 -39q-39 -39 -83 -63q-82 -48 -104 -53q-36 -9 -57 26q-24 40 37.5 89t157.5 72q21 15 26 38t-8 35q-5 5 -25 -2t-70.5 -46t-113.5 -108q-3 -4 -14 -15q-21 -53 -105 -234t-89 -197l-4.5 -13.5l-4 -12t-3.5 -10 t-3.5 -8.5t-3.5 -6.5t-4.5 -5l-5 -3t-5.5 -1t-7 1.5q-19 4 -26 42.5t9 71.5q18 37 122.5 284.5t110.5 259.5q9 23 23 40.5t24 19.5q9 1 17.5 -0.5t16 -7t12 -9t11 -11t7.5 -8.5q3 -3 -3 -18q7 5 27 22t29 23t28 14t41 11q61 8 88 -15t25 -73q0 -19 -13 -46q24 7 71.5 6.5 t63.5 -9.5z" />
<glyph unicode="q" horiz-adv-x="375" d="M368 276q4 -4 -6.5 -28t-31 -68.5t-32.5 -81.5q-15 -49 -79 -217t-68 -183q-1 -5 -3 -12.5t-3 -11t-3 -9t-3 -7.5t-3 -6.5t-3.5 -5t-4 -3t-5 -1t-6.5 0.5q-17 2 -25.5 36t3.5 66q29 66 147 419q-101 -69 -187 -110q-32 -17 -65 8t-27 52q5 23 56 65t93 66q14 8 31.5 11 t28.5 2.5t27.5 -3.5t18.5 -3q17 -5 12 -16t-15 -14q-35 -15 -82 -58q-25 -23 -13 -22q3 0 10 3q32 12 75.5 45.5t63.5 53.5l1 1v2q18 51 39 57q24 7 59 -28z" />
<glyph unicode="r" horiz-adv-x="342" d="M315 209q4 -35 1.5 -52.5t-16.5 -17.5q-18 0 -40 12t-19 30q2 19 -9.5 25.5t-27.5 -2.5q-2 -1 -44 -21q-31 -56 -41 -89q-7 -17 -10.5 -44t-14.5 -42.5t-42 -32.5q-47 -25 -61 11q-11 28 9 82.5t53.5 113.5t34.5 62q5 12 8.5 26.5t7 22.5t13.5 16q20 14 27.5 18.5 t16.5 3.5t16 -12q4 -6 13.5 -10t16 -6.5t6 -14t-12.5 -33.5q80 56 100 56q9 0 13.5 -6.5t4.5 -16.5t-1 -23.5t-2.5 -27.5t0.5 -28z" />
<glyph unicode="s" horiz-adv-x="261" d="M221 234q64 30 106 26q15 -1 5 -7q-1 0 -3 -1q-76 -35 -181 -111q2 -20 4 -24q20 -97 -36 -140q-27 -20 -57 -19.5t-49 18.5q-6 4 -15 15.5t-12 14.5q-7 5 -3 28t16 43q21 34 82 76q-1 6 -5.5 16.5t-5.5 15.5q-24 73 33 130q25 25 67.5 31t52.5 -3q11 -6 13.5 -19 t-3.5 -16q-5 -5 -17 -5q-37 0 -60 -53q-10 -21 -10 -58q41 24 78 42zM91 37q3 9 -3 63l-5 -4q-49 -38 -49 -80q2 -8 9 -14q14 0 28.5 9t19.5 26z" />
<glyph unicode="t" horiz-adv-x="215" d="M407 641q1 -7 -7 -12.5t-11 -9.5q-4 -6 -24 -32.5t-38.5 -51.5t-50 -74.5t-62.5 -105.5q10 1 36.5 3t37.5 4q74 9 74 -2v-2q-2 -6 -12 -18.5t-35.5 -28.5t-56.5 -21l-34 -6q-34 -5 -54 -9q-2 -4 -16 -30t-22 -42q-39 -78 -68.5 -140t-45.5 -103t-24.5 -64t-14.5 -45 t-7 -24q-9 -26 -25 -34t-32 11q-32 45 18 155q48 117 127 299q-35 -5 -48 -5q-25 -2 -33.5 37.5t11.5 47.5q12 5 18 6.5t13 1t24 0.5q2 0 56 2q40 86 79 152q66 107 99.5 150.5t50.5 40.5q19 -4 47 -22.5t30 -27.5z" />
<glyph unicode="u" horiz-adv-x="376" d="M176 294q24 -14 -6 -54q-35 -49 -63 -116q-13 -31 -2 -24q37 28 95 82.5t77 93.5q8 18 14 20.5t20 0.5q20 -3 46 -20t15 -33q-15 -21 -51.5 -86.5t-43.5 -88.5q-6 -14 -7 -30.5t-3 -26t-9 -14.5q-21 -15 -51 18q-24 24 -4 105q-18 -14 -45.5 -39.5t-48.5 -40t-45 -20.5 q-19 -5 -33.5 3t-22 24.5t-10.5 27t-5 22.5q-2 14 82 172q11 22 18 27.5t25 6.5q33 1 58 -10z" />
<glyph unicode="v" horiz-adv-x="322" d="M56 349q17 15 24.5 20t17.5 4.5t21 -12.5q6 -7 18 -11.5t16.5 -7.5t7.5 -18t-8 -43q-5 -16 -13.5 -45.5t-13 -45.5t-10 -37.5t-8 -37t-2.5 -28.5q38 12 98.5 88.5t94.5 131.5q8 13 16 3q7 -8 7 -27t-15 -60.5t-37 -72.5q-66 -97 -182 -174q-44 -28 -71 13 q-16 23 -16 69.5t9 86.5t20.5 82.5t12.5 49.5q3 18 1.5 30t0.5 23t11 19z" />
<glyph unicode="w" horiz-adv-x="503" d="M56 349q17 15 24.5 20t17.5 4.5t21 -12.5q6 -7 18 -11.5t16.5 -7.5t7.5 -18t-8 -43q-41 -143 -41 -195q23 20 61 69.5t65.5 81t38.5 24.5q42 -26 31 -80q-11 -61 -12 -83q12 0 39 19t45 40q27 31 54 78t40.5 67.5t21.5 10.5q14 -18 -1 -82.5t-46 -113.5q-35 -54 -97 -104 t-98 -50q-27 0 -43.5 44.5t-9.5 77.5q-17 -12 -40 -35t-41 -40t-37.5 -30.5t-36 -12t-29.5 21.5q-16 23 -16 69.5t9 86.5t20.5 82.5t12.5 49.5q3 18 1.5 30t0.5 23t11 19z" />
<glyph unicode="x" horiz-adv-x="356" d="M353 93q18 11 16 -2q-3 -22 -34 -54l-7 -7q-22 -20 -33 -29t-31.5 -18.5t-38.5 -8.5q-61 0 -110 88l-51 -43q-30 -25 -39.5 -29t-23.5 2q-9 7 -6.5 13.5t16.5 26.5q19 25 30 44q15 21 46 50q-37 112 -29 153q4 25 23 33q19 6 45.5 0.5t32.5 -17.5q6 -3 0.5 -31.5 t-5.5 -31.5q-1 -17 4 -50q69 50 124 75q63 30 70 15q6 -12 -34 -45l-142 -116q1 -3 3 -9.5t4 -9.5q7 -14 20.5 -31t20.5 -18q19 -3 31 -3t28 8t25.5 14t23.5 16.5t21 14.5z" />
<glyph unicode="y" horiz-adv-x="400" d="M322 79l56 12q21 2 19 -6q-4 -16 -57 -35l-32 -10q-32 -85 -59 -133q-105 -179 -335 -228q-44 -10 -73.5 35.5t-7.5 110.5q20 59 128 123t279 110q20 49 43 139q-13 -10 -43 -33.5t-42 -32.5t-31.5 -20.5t-35.5 -15.5q-34 -10 -69.5 17.5t-26.5 63.5q7 22 39.5 60 t62.5 56q36 22 61 17q11 -3 13 -8t-0.5 -10t-9.5 -15q-2 -2 -3 -4q-84 -105 -46 -103q9 1 25 7q42 17 122 107q1 8 2.5 13t3.5 7t5 0q1 0 16.5 -6.5t23 -11t15.5 -14.5t7 -23q-6 -45 -50 -169zM177 -73q28 46 44 85q-121 -39 -209 -96q-91 -60 -122 -122q-19 -40 3 -43h5 q25 2 73.5 20t111 60.5t94.5 95.5z" />
<glyph unicode="z" horiz-adv-x="386" d="M102 317q14 2 44.5 6.5t43.5 6.5t36.5 5t35.5 3t28 -0.5t26.5 -3.5t18.5 -8q30 -17 29.5 -45t-36.5 -56q-17 -13 -77.5 -50t-98 -63t-23.5 -28q28 -5 76.5 -4t82.5 5q17 1 16 -7q-2 -16 -47 -36q-22 -9 -48 -15q-123 -31 -184 17q-29 21 54.5 93.5t154.5 115.5 q-10 21 -150 -28q-43 -15 -39 11q3 28 39 67q13 13 18 14z" />
<glyph unicode="{" horiz-adv-x="321" d="M524 897q28 -6 39.5 -42.5t-7.5 -50.5q-2 -3 -17 -4t-34 -5t-51.5 -32.5t-66.5 -79.5q-13 -20 -30 -52t-40 -76.5t-33 -63.5q-16 -43 -43.5 -71t-59 -47.5t-38.5 -26.5q22 -15 36 -49t11 -72l3 -27q-17 -141 10 -273q13 -57 33 -100q24 -44 1 -52q-22 -6 -54 27 q-45 49 -64 144q-25 112 -24 173q2 50 5 77v1q-1 1 -1 2q-1 23 -11 38.5t-35.5 37.5t-28.5 25q-44 44 -7 106q11 19 42 31t64.5 25.5t48.5 35.5q9 23 27 61q44 89 69 128q6 9 32 50t49.5 72.5t45.5 51.5q32 29 69 35.5t60 2.5z" />
<glyph unicode="|" horiz-adv-x="412" d="M238 801q27 13 65 -4.5t30 -47.5q-1 -3 -12 -42.5t-24 -88.5t-28.5 -111t-31 -131t-25.5 -128q-47 -264 -42 -288q2 -12 -5 -23t-22 -10q-42 2 -41 132q0 65 28.5 261.5t44.5 276.5q2 12 9 48.5t11 55t11 44.5t15 39t17 17z" />
<glyph unicode="}" horiz-adv-x="833" d="M398 405q10 -62 -54 -106q-9 -6 -40 -25.5t-49 -36t-30 -38.5q-28 -78 -60 -137q-46 -88 -114 -160.5t-115 -104.5q-26 -17 -49 -25.5t-37.5 -8t-25.5 5.5t-16 11t-7 13q-6 23 25 33q28 11 65 37q92 72 162 190q34 57 57 121l1 1q23 61 62.5 111.5t72.5 60.5 q-4 8 -19 21.5t-28 26.5t-22.5 39.5t-6.5 60.5q0 4 2 18q-6 115 -17 171q-9 42 -23.5 68.5t-29 35.5t-28 12t-23 2.5t-10.5 2.5q-15 14 -1 50.5t44 42.5q63 16 108 -32q52 -58 74 -179q6 -31 11 -129l4 -48l2 -1q0 -23 17 -38t37.5 -21.5t39 -18t21.5 -26.5z" />
<glyph unicode="~" horiz-adv-x="419" d="M86 274q12 18 38.5 32.5t49.5 14.5q38 0 74 -38q17 -16 38 -15.5t26 8.5q26 29 37 30q4 1 8 -1q10 -9 8.5 -22.5t-8.5 -27.5q-10 -23 -44.5 -34t-72.5 0q-24 8 -40.5 22.5t-35.5 12.5q-15 -1 -37.5 -15.5t-32.5 -11.5q-17 6 -18.5 16t10.5 29z" />
<glyph unicode="&#xa1;" horiz-adv-x="405" d="M90 -241q-18 -5 -53 18t-26 45q4 10 24 35.5t59.5 86.5t84.5 150q97 187 104 225q1 13 11.5 23t25.5 7q14 -2 20.5 -7.5t6 -30t-15.5 -70.5q-40 -129 -115 -279q-7 -13 -24.5 -48.5t-27.5 -54.5t-25 -44.5t-27 -39t-22 -16.5zM398 440q-19 -6 -47.5 1.5t-41.5 23.5 q-12 17 -10 25t15 21q11 11 27.5 15t28.5 -1q6 -3 10 -8t5.5 -9t3 -11.5t2.5 -9.5q1 -3 6.5 -16t6.5 -19t-6 -12z" />
<glyph unicode="&#xa2;" horiz-adv-x="406" d="M350 426q8 -15 9 -26t-3 -16.5t-13 -4.5q-4 0 -16 11t-32 2q-44 -127 -61 -188q-1 -4 -3.5 -15t-4.5 -16q32 11 71 30q46 21 46 1q0 -22 -50 -58q-22 -15 -48 -28l-39 -18q-15 -61 -14 -71q1 -8 -4.5 -14.5t-14.5 -4.5q-23 5 -19 72q-32 -5 -61 14t-41 48q-26 64 0 114 q18 37 84.5 109t105.5 89q22 82 41 88q16 7 39 -6t16 -31l-21 -55q24 -7 33 -26zM141 220q-23 -56 26 -60q14 70 35 148q-50 -59 -61 -88z" />
<glyph unicode="&#xa3;" horiz-adv-x="523" d="M486 580q4 -4 2 -9t-3 -6.5t-8.5 -7.5t-12.5 -11q-17 -18 -50 -10q-18 15 -42 15q-26 1 -48 -19t-39 -58t-28.5 -74t-24.5 -85l-3 -12l18 3q10 2 27 4.5t25.5 4t21 3.5t19.5 2t15 -0.5t14 -2.5t11 -6q9 -8 9.5 -34t-16.5 -30q-14 -3 -46.5 -1.5t-56.5 -0.5 q-10 -1 -30.5 -2.5t-30.5 -3.5q-6 -22 -16 -87t-14 -86q95 -6 121 -4q37 3 98 23q37 12 57 -6q16 -11 11 -42q-3 -30 -26 -41q-61 -25 -119 -16q-113 16 -149 17q-57 4 -76 -7q-10 -7 -22.5 -1.5t-18.5 17.5q-2 5 -8 8.5t-4 9.5q8 22 46 35q-10 56 15 167l-25 -6 q-8 -6 -19.5 -3.5t-17.5 13.5q-1 2 -5 6.5t-5.5 7t-1 7t5 8.5t16 9t30.5 11l37 9q2 10 9 42.5t10 43.5t10 39t12.5 40.5t15 35.5t20 36t24 30t31 30t37.5 24q32 23 95 30q19 2 50 -17.5t53 -41.5z" />
<glyph unicode="&#xa4;" horiz-adv-x="557" d="M459 516q19 -2 33.5 -24t-0.5 -35l-40 -37q29 -33 29 -73q2 -66 -34 -123q0 -1 -2 -3q50 -47 47 -63q-3 -18 -24.5 -32.5t-34.5 -0.5q-2 2 -7 7.5t-13.5 15t-17.5 19.5q-30 -20 -76 -35q-50 -14 -108 6q-15 3 -25 9q-33 -39 -40 -51q-2 -7 -9.5 -10t-15.5 2q-21 15 22 83 q2 2 2 3q-54 47 -48 125q5 59 54 108q-63 57 -79 64q-7 3 -10 9.5t2 15.5q15 21 83 -22q18 -11 47 -35q51 31 109 31q48 1 85 -10q54 59 71 56zM352 216q50 26 65 102q2 3 2 20q2 28 -30.5 51t-76.5 19q-50 -6 -84.5 -33t-40.5 -73q-6 -40 22 -70.5t79 -30.5q36 0 64 15z " />
<glyph unicode="&#xa5;" horiz-adv-x="493" d="M470 657q25 -39 -27 -137q-9 -15 -26 -53.5t-42.5 -99.5t-40.5 -96q70 11 86 -5q10 -6 7.5 -34t-18.5 -30q-11 -1 -41 2.5t-49 1.5q-3 0 -7.5 -0.5t-6.5 -0.5q-3 -7 -9 -17q33 5 46.5 6t29 -0.5t23.5 -9.5q9 -6 7.5 -34t-17.5 -30q-11 -1 -41.5 2.5t-49.5 1.5l-35 -2 q-59 -84 -93 -119.5t-49 -30.5q-16 4 -41.5 23t-23.5 27q2 6 12.5 13.5t35.5 27.5t52 51q-5 -1 -10.5 -1.5t-8.5 -1t-5.5 -1t-3.5 -1.5q-22 -10 -32 12q-1 2 -4.5 8t-4 9t2 8.5t13.5 11t31 10.5q17 5 74 12q2 4 6.5 10t6.5 9q-63 -5 -68 -8q-22 -10 -32 12q-1 2 -4.5 8t-4 9 t2 8.5t13.5 11t31 10.5q28 8 98 14q44 85 99 215q-21 -31 -62.5 -93.5t-52.5 -77.5q-23 -31 -38 -41t-33 -9q-45 0 -59 46q-17 44 -41 155l-25 114q-24 13 -20.5 43.5t19.5 37.5q17 10 49 -8q30 -15 44.5 -28t15 -23t-0.5 -21q-1 -5 1 -21t7.5 -47t8.5 -50q3 -17 19 -103 q11 -24 53.5 23.5t95.5 124.5t61 86q4 3 4 5l20 49q10 23 24.5 29t27.5 -13z" />
<glyph unicode="&#xa8;" horiz-adv-x="371" d="M127 723q2 0 9.5 0.5t13 0.5t11.5 -1t9.5 -3.5t3.5 -6.5q0 -19 -18.5 -44t-37.5 -30q-20 -5 -26.5 -0.5t-14.5 21.5q-14 36 7 57q5 5 11.5 6.5t10.5 1.5t11.5 -1t9.5 -1zM263 723q2 0 9.5 0.5t13 0.5t11.5 -1t9.5 -3.5t3.5 -6.5q0 -19 -18.5 -44t-37.5 -30 q-20 -5 -26.5 -0.5t-14.5 21.5q-14 36 7 57q5 5 11.5 6.5t10.5 1.5t11.5 -1t9.5 -1z" />
<glyph unicode="&#xa9;" horiz-adv-x="663" d="M595 415q17 -92 -19 -185q-25 -61 -65.5 -97t-97.5 -66q-73 -28 -157 -16q-79 11 -136 62t-65 143q-9 91 62.5 181.5t193.5 113.5q60 12 105.5 6.5t77.5 -18.5t53.5 -36t32.5 -44.5t15 -43.5zM533 348q2 5 -1 34q-4 48 -65 77.5t-136 12.5q-83 -20 -133.5 -76.5 t-48.5 -136.5q2 -70 57 -114.5t141 -29.5q57 9 105 43q18 15 32.5 34.5t22.5 37.5t13.5 39t7.5 34.5t3.5 28.5t1.5 16zM371 428q19 4 42 -2t32 -22q18 -36 -5 -36q-5 0 -10 6t-10 7.5t-23 -7.5q-24 -14 -61 -57t-48 -68q-10 -23 14 -27q31 -5 77 29q19 14 18 1 q-2 -18 -27 -52q-7 -9 -34 -23t-37 -17q-26 -6 -47.5 2.5t-29.5 29.5q-19 49 0 86q14 29 68 87t81 63z" />
<glyph unicode="&#xad;" horiz-adv-x="472" d="M57 211q-12 10 -7 45t26 37q16 2 57 -5t65 -7q174 0 190 6q9 6 23 1.5t19 -18.5q1 -2 6.5 -10.5t5 -12.5t-4 -11t-19 -12.5t-42.5 -10.5q-48 -10 -159 -12q-17 -1 -45 -3t-41 -2.5t-30 0.5t-27 4.5t-17 10.5z" />
<glyph unicode="&#xae;" horiz-adv-x="663" d="M595 415q17 -92 -19 -185q-25 -61 -65.5 -97t-97.5 -66q-73 -28 -157 -16q-79 11 -136 62t-65 143q-9 91 62.5 181.5t193.5 113.5q60 12 105.5 6.5t77.5 -18.5t53.5 -36t32.5 -44.5t15 -43.5zM533 348q2 5 -1 34q-4 48 -65 77.5t-136 12.5q-83 -20 -133.5 -76.5 t-48.5 -136.5q2 -70 57 -114.5t141 -29.5q57 9 105 43q18 15 32.5 34.5t22.5 37.5t13.5 39t7.5 34.5t3.5 28.5t1.5 16zM347 374q42 35 67.5 34t32.5 -28q16 -56 -99 -103q10 -35 18 -51q10 -17 23 -31t22 -14q15 0 1 -12q-17 -14 -33 -12q-14 2 -32.5 18.5t-30.5 35.5 q-14 23 -18 45q-4 -2 -10.5 -3t-10.5 -3l-14 -30q-14 -32 -14 -35q-1 -3 -1 -4t-1 -3t-3 -2.5t-5 -0.5q-4 0 -9 6.5t-8 18t2 27.5q6 18 27.5 70t24.5 61q25 64 41 71q17 8 34 -4t14 -22q-1 -2 -18 -29zM287 269q22 12 34.5 19.5t32 21t27 26.5t2.5 25q-4 11 -24 0t-35 -26 q-35 -62 -37 -66z" />
<glyph unicode="&#xaf;" horiz-adv-x="340" d="M314 771q8 -7 4.5 -33t-19.5 -28q-12 -2 -43 3.5t-49 5.5q-129 0 -143 -5q-22 -8 -32 13q-1 2 -4.5 8t-4 9.5t2.5 8.5t14.5 9t32.5 8q21 5 41.5 6.5t43 1.5t35.5 1t34 2.5t31 1.5t22.5 -0.5t20 -3t13.5 -8.5z" />
<glyph unicode="&#xb0;" horiz-adv-x="331" d="M219 683q32 11 71 -26t21 -106q-16 -59 -76.5 -98t-110.5 -28q-30 6 -44.5 31.5t-11.5 53.5t17 48q79 111 121 120q2 0 6.5 2t6.5 3zM139 501q0 -22 41 0q32 17 46 37q10 10 17.5 36t-3.5 42q-40 -16 -70.5 -56t-30.5 -59z" />
<glyph unicode="&#xb1;" horiz-adv-x="535" d="M379 108q10 -8 6 -36.5t-21 -30.5q-14 -2 -47.5 4t-52.5 6q-141 0 -155 -5q-8 -4 -18.5 -0.5t-15.5 14.5q-1 2 -6 11t-3.5 12.5t13.5 10t40 12.5q23 5 44.5 6.5t46.5 2t39 1.5t37 2.5t33.5 1.5t24 -0.5t21.5 -3t14 -8.5zM491 397q1 -2 6.5 -10.5t5 -12.5t-4 -11 t-19 -12.5t-42.5 -10.5q-36 -9 -118 -11q-35 -97 -35 -124q1 -12 -7.5 -21t-23.5 -7q-13 2 -18.5 7t-10.5 27.5t5 66.5l9 47q-43 -4 -74.5 -2t-45.5 15q-12 10 -7 45t26 37q16 2 57 -5t65 -7l10 29q4 12 10 30.5t9 27.5l7.5 22.5t8.5 20.5t9 14.5t10.5 12t12.5 6.5 q15 5 45.5 -14.5t24.5 -39.5q-5 -15 -25.5 -48t-29.5 -54l-2 -6q89 0 100 5q9 6 23 1.5t19 -18.5z" />
<glyph unicode="&#xb4;" horiz-adv-x="300" d="M114 633q59 59 75 98q0 2 1 3q3 4 11 3.5t19 -9.5t16 -23q8 -29 -28 -64q-49 -51 -83 -58q-47 -14 -48 7q0 10 37 43z" />
<glyph unicode="&#xb7;" horiz-adv-x="199" d="M45 296q18 6 46.5 -1.5t42.5 -23.5q12 -17 10 -25t-15 -21q-11 -11 -27.5 -15t-28.5 1q-6 3 -10 8t-5.5 9t-3 11.5t-2.5 9.5q-1 1 -4 8.5t-5 12t-3.5 11t0 10.5t5.5 5z" />
<glyph unicode="&#xb8;" horiz-adv-x="228" d="M153 -32q32 -23 29 -47q-6 -40 -24 -53q-25 -18 -56 -20q-41 -4 -55 10q-22 21 -14 39q15 22 41 8q2 -1 8 -5t8 -4q1 0 3.5 -1.5t4.5 -2t6.5 1t9.5 5.5q14 11 14 25q1 11 -13 22t-44 10q-15 0 -15 16q-3 11 11 40q4 13 24 2q16 -9 10 -17q0 -1 -0.5 -2.5t-1.5 -2.5t-1 -3 v-2q8 0 11 -1q29 -6 44 -18z" />
<glyph unicode="&#xbf;" horiz-adv-x="485" d="M107 -220q-100 57 -70 191q9 39 19 63.5t14.5 32t23.5 25.5t25 24q16 19 91 71t83 73q16 47 49 67q25 15 32 -6q7 -22 -8.5 -64.5t-39.5 -80.5q-10 -16 -47 -43t-72.5 -59.5t-47.5 -65.5q-16 -45 -17 -78.5t10 -50.5t23.5 -25t25.5 -9q28 -2 56.5 13.5t49 35.5t47.5 39.5 t52 23.5q35 6 52.5 -13t13 -47t-24.5 -47q-69 -61 -156 -84q-33 -12 -91.5 -10t-92.5 24zM402 426q-19 -6 -48 1.5t-42 23.5q-12 17 -10 25t15 21q11 11 27.5 15t29.5 -1q6 -3 9.5 -8t5 -9t3 -11t2.5 -10t3.5 -9t5.5 -11.5t4.5 -11t0.5 -9.5t-6 -6z" />
<glyph unicode="&#xc0;" horiz-adv-x="573" d="M582 694q16 0 30.5 -3.5t29 -13.5t22 -25.5t7 -43.5t-12.5 -64q-29 -82 -107 -247q57 0 58 -22q1 -14 -23 -26q-11 -5 -66 -17q-118 -250 -120 -254q-23 -52 -27.5 -74.5t1.5 -29.5q2 -9 -6 -16.5t-23.5 -5t-30.5 17.5q-17 17 -22 39.5t4.5 58.5t35.5 86q24 45 79 161 q-140 -20 -187 -20q-29 -1 -62 4q-76 -112 -122 -213q-5 -11 -7.5 -30t-7.5 -28t-17 -6q-29 7 -52 29.5t-12 42.5q99 178 227 344t267 284q84 72 144 72zM444 287q97 222 132 337q-42 0 -139 -88.5t-202 -231.5l-34 -47q51 5 243 30zM655 833q4 -4 11 -10.5t10 -10t7 -8 t5 -8t0 -6.5q-2 -11 -17 -14.5t-33 1.5q-37 9 -77 64q-31 43 -23 64q5 14 16 23t19.5 9t12.5 -3v-1q1 -1 1 -2q9 -29 31 -57.5t37 -40.5z" />
<glyph unicode="&#xc1;" horiz-adv-x="573" d="M582 694q16 0 30.5 -3.5t29 -13.5t22 -25.5t7 -43.5t-12.5 -64q-29 -82 -107 -247q57 0 58 -22q1 -14 -23 -26q-11 -5 -66 -17q-118 -250 -120 -254q-23 -52 -27.5 -74.5t1.5 -29.5q2 -9 -6 -16.5t-23.5 -5t-30.5 17.5q-17 17 -22 39.5t4.5 58.5t35.5 86q24 45 79 161 q-140 -20 -187 -20q-29 -1 -62 4q-76 -112 -122 -213q-5 -11 -7.5 -30t-7.5 -28t-17 -6q-29 7 -52 29.5t-12 42.5q99 178 227 344t267 284q84 72 144 72zM444 287q97 222 132 337q-42 0 -139 -88.5t-202 -231.5l-34 -47q51 5 243 30zM612 833q59 59 75 98q0 2 1 3 q3 4 11 3.5t19 -9.5t16 -23q8 -29 -28 -64q-49 -51 -83 -58q-47 -14 -48 7q0 10 37 43z" />
<glyph unicode="&#xc2;" horiz-adv-x="573" d="M582 694q16 0 30.5 -3.5t29 -13.5t22 -25.5t7 -43.5t-12.5 -64q-29 -82 -107 -247q57 0 58 -22q1 -14 -23 -26q-11 -5 -66 -17q-118 -250 -120 -254q-23 -52 -27.5 -74.5t1.5 -29.5q2 -9 -6 -16.5t-23.5 -5t-30.5 17.5q-17 17 -22 39.5t4.5 58.5t35.5 86q24 45 79 161 q-140 -20 -187 -20q-29 -1 -62 4q-76 -112 -122 -213q-5 -11 -7.5 -30t-7.5 -28t-17 -6q-29 7 -52 29.5t-12 42.5q99 178 227 344t267 284q84 72 144 72zM444 287q97 222 132 337q-42 0 -139 -88.5t-202 -231.5l-34 -47q51 5 243 30zM516 757q-14 6 -8 28q22 39 33 51 q58 65 94 82q30 14 48 11t37.5 -28t21.5 -59q1 -33 -17 -62q-8 -13 -24 -20t-28 -6t-12 6v3q10 33 9.5 56.5t-4 30.5t-10.5 17q-50 -24 -104 -87q-22 -27 -36 -23z" />
<glyph unicode="&#xc3;" horiz-adv-x="573" d="M582 694q16 0 30.5 -3.5t29 -13.5t22 -25.5t7 -43.5t-12.5 -64q-29 -82 -107 -247q57 0 58 -22q1 -14 -23 -26q-11 -5 -66 -17q-118 -250 -120 -254q-23 -52 -27.5 -74.5t1.5 -29.5q2 -9 -6 -16.5t-23.5 -5t-30.5 17.5q-17 17 -22 39.5t4.5 58.5t35.5 86q24 45 79 161 q-140 -20 -187 -20q-29 -1 -62 4q-76 -112 -122 -213q-5 -11 -7.5 -30t-7.5 -28t-17 -6q-29 7 -52 29.5t-12 42.5q99 178 227 344t267 284q84 72 144 72zM444 287q97 222 132 337q-42 0 -139 -88.5t-202 -231.5l-34 -47q51 5 243 30zM540 809q8 16 25.5 28t33.5 12 q25 0 49 -32q12 -13 25 -13t18 7q2 2 4.5 6t4.5 6.5t4 5.5t4 4.5t4 2.5t4.5 0.5t4.5 -1.5q13 -8 0 -42q-6 -19 -30 -29t-48 0q-16 7 -27 19.5t-23 10.5q-10 -1 -25.5 -13.5t-21.5 -9.5q-21 10 -6 38z" />
<glyph unicode="&#xc4;" horiz-adv-x="573" d="M582 694q16 0 30.5 -3.5t29 -13.5t22 -25.5t7 -43.5t-12.5 -64q-29 -82 -107 -247q57 0 58 -22q1 -14 -23 -26q-11 -5 -66 -17q-118 -250 -120 -254q-23 -52 -27.5 -74.5t1.5 -29.5q2 -9 -6 -16.5t-23.5 -5t-30.5 17.5q-17 17 -22 39.5t4.5 58.5t35.5 86q24 45 79 161 q-140 -20 -187 -20q-29 -1 -62 4q-76 -112 -122 -213q-5 -11 -7.5 -30t-7.5 -28t-17 -6q-29 7 -52 29.5t-12 42.5q99 178 227 344t267 284q84 72 144 72zM444 287q97 222 132 337q-42 0 -139 -88.5t-202 -231.5l-34 -47q51 5 243 30zM570 847q2 0 9.5 0.5t13 0.5t11.5 -1 t9.5 -3.5t3.5 -6.5q0 -19 -18.5 -44t-37.5 -30q-20 -5 -26.5 -0.5t-14.5 21.5q-14 36 7 57q5 5 11.5 6.5t10.5 1.5t11.5 -1t9.5 -1zM706 847q2 0 9.5 0.5t13 0.5t11.5 -1t9.5 -3.5t3.5 -6.5q0 -19 -18.5 -44t-37.5 -30q-20 -5 -26.5 -0.5t-14.5 21.5q-14 36 7 57 q5 5 11.5 6.5t10.5 1.5t11.5 -1t9.5 -1z" />
<glyph unicode="&#xc5;" horiz-adv-x="573" d="M582 694q16 0 30.5 -3.5t29 -13.5t22 -25.5t7 -43.5t-12.5 -64q-29 -82 -107 -247q57 0 58 -22q1 -14 -23 -26q-11 -5 -66 -17q-118 -250 -120 -254q-23 -52 -27.5 -74.5t1.5 -29.5q2 -9 -6 -16.5t-23.5 -5t-30.5 17.5q-17 17 -22 39.5t4.5 58.5t35.5 86q24 45 79 161 q-140 -20 -187 -20q-29 -1 -62 4q-76 -112 -122 -213q-5 -11 -7.5 -30t-7.5 -28t-17 -6q-29 7 -52 29.5t-12 42.5q99 178 227 344t267 284q84 72 144 72zM444 287q97 222 132 337q-42 0 -139 -88.5t-202 -231.5l-34 -47q51 5 243 30zM690 923q16 -3 30.5 -28t-1.5 -58 q-17 -36 -59.5 -60t-72.5 -18q-26 8 -25.5 36t18.5 46q60 68 91 75l7 2q-1 2 3.5 4t8.5 1zM673 839q12 13 18 43q-71 -55 -74 -71q-2 -4 3 -4q18 1 44 23z" />
<glyph unicode="&#xc6;" horiz-adv-x="705" d="M1038 719q27 -8 19.5 -35t-40.5 -41q-17 -7 -33 -7.5t-43 3t-51 3.5q-9 -1 -47 -1.5t-61.5 -2t-55 -8t-50.5 -16.5q-6 -9 -18 -34q-2 -6 -6 -18.5t-6 -20.5l-31 -89q176 12 309 40q19 13 33 -9q17 -27 -5 -55q-17 -21 -51 -31q-51 -14 -106.5 -18.5t-123 -3t-84.5 0.5 l-2 -4t-3 -4q-6 -12 -16 -36t-15 -35l-9 -24l-15 -41q-21 -50 -12 -117t47 -88q32 -21 77 -14t78.5 22t58.5 33q34 24 31 5q-4 -25 -52 -74q-44 -44 -87 -62q-41 -19 -96 -16.5t-85 26.5q-39 30 -62 95t3 173q-135 -20 -204 -20q-29 -1 -62 4q-76 -112 -122 -213 q-5 -11 -7.5 -30t-7.5 -28t-17 -6q-29 7 -52 29.5t-12 42.5q99 178 227 344t267 284q84 72 144 72q26 0 43 -8q35 16 209 31q9 0 39 2q126 9 165 0zM235 304l-34 -47q51 5 243 30l21 49q2 6 5 16t4 13q-20 -2 -32 9t-4 30q19 40 75 46q35 84 63 174q-42 0 -139 -88.5 t-202 -231.5z" />
<glyph unicode="&#xc7;" horiz-adv-x="475" d="M692 706q15 -30 12 -46t-21 -15q-7 1 -20.5 10t-33 15t-47.5 1q-153 -30 -278.5 -142.5t-184.5 -267.5q-22 -52 -9 -115t53 -80q48 -16 108.5 -5t96.5 36q32 24 30 6q-4 -25 -53 -75q-43 -44 -85 -62q-39 -17 -87 -17l-2 -6q8 0 11 -1q29 -6 44 -18q32 -23 29 -47 q-6 -40 -24 -53q-25 -18 -56 -20q-41 -4 -55 10q-22 21 -14 39q15 22 41 8q1 -1 8 -5t8 -4t3.5 -1.5t4.5 -2t6.5 1t9.5 5.5q14 11 14 25q1 11 -13 22t-44 10q-15 0 -15 16q-2 9 5 24q-36 8 -56 24q-15 12 -18.5 14.5t-20.5 19t-23 28.5t-16.5 36.5t-11.5 48.5t2 59.5 t15 74.5q47 167 204 301t356 190q29 9 70.5 -2.5t56.5 -39.5z" />
<glyph unicode="&#xc8;" horiz-adv-x="406" d="M739 719q27 -8 19.5 -35t-40.5 -41q-17 -7 -33 -7.5t-43 3t-51 3.5q-9 0 -31 -1t-33 -2t-28.5 -3.5t-33 -8t-30.5 -13.5q-93 -54 -178 -161q95 4 268 39q19 13 33 -9q17 -27 -5 -55q-17 -21 -51 -31q-51 -14 -110.5 -19.5t-101.5 -3.5t-89 0q-44 -68 -73 -142 q-22 -52 -9 -115t53 -80q48 -17 110 -5.5t95 36.5q34 24 31 5q-4 -25 -52 -74q-45 -44 -87 -62q-41 -19 -96 -16.5t-85 26.5q-20 15 -28 21.5t-28.5 33.5t-27 53t-6.5 72.5t16 100.5q18 66 61 137q-9 -1 -20.5 -2t-19 -2t-12.5 -2q-15 -2 -24.5 11t-0.5 32q14 28 39.5 37.5 t95.5 11.5q70 89 163 161h-1q-19 -13 -36 7q-20 22 -1 47q15 19 50 28q24 7 227 23q9 0 39 2q126 9 165 0zM555 812q4 -4 11 -10.5t10 -10t7 -8t5 -8t0 -6.5q-2 -11 -17 -14.5t-33 1.5q-37 9 -77 64q-31 43 -23 64q5 14 16 23t19.5 9t12.5 -3v-1l1 -2q9 -29 31 -57.5 t37 -40.5z" />
<glyph unicode="&#xc9;" horiz-adv-x="406" d="M739 719q27 -8 19.5 -35t-40.5 -41q-17 -7 -33 -7.5t-43 3t-51 3.5q-9 0 -31 -1t-33 -2t-28.5 -3.5t-33 -8t-30.5 -13.5q-93 -54 -178 -161q95 4 268 39q19 13 33 -9q17 -27 -5 -55q-17 -21 -51 -31q-51 -14 -110.5 -19.5t-101.5 -3.5t-89 0q-44 -68 -73 -142 q-22 -52 -9 -115t53 -80q48 -17 110 -5.5t95 36.5q34 24 31 5q-4 -25 -52 -74q-45 -44 -87 -62q-41 -19 -96 -16.5t-85 26.5q-20 15 -28 21.5t-28.5 33.5t-27 53t-6.5 72.5t16 100.5q18 66 61 137q-9 -1 -20.5 -2t-19 -2t-12.5 -2q-15 -2 -24.5 11t-0.5 32q14 28 39.5 37.5 t95.5 11.5q70 89 163 161h-1q-19 -13 -36 7q-20 22 -1 47q15 19 50 28q24 7 227 23q9 0 39 2q126 9 165 0zM515 809q59 59 75 98q0 2 1 3q3 4 11 3.5t19 -9.5t16 -23q7 -28 -28 -64q-49 -51 -83 -58q-47 -14 -48 7q0 10 37 43z" />
<glyph unicode="&#xca;" horiz-adv-x="406" d="M739 719q27 -8 19.5 -35t-40.5 -41q-17 -7 -33 -7.5t-43 3t-51 3.5q-9 0 -31 -1t-33 -2t-28.5 -3.5t-33 -8t-30.5 -13.5q-93 -54 -178 -161q95 4 268 39q19 13 33 -9q17 -27 -5 -55q-17 -21 -51 -31q-51 -14 -110.5 -19.5t-101.5 -3.5t-89 0q-44 -68 -73 -142 q-22 -52 -9 -115t53 -80q48 -17 110 -5.5t95 36.5q34 24 31 5q-4 -25 -52 -74q-45 -44 -87 -62q-41 -19 -96 -16.5t-85 26.5q-20 15 -28 21.5t-28.5 33.5t-27 53t-6.5 72.5t16 100.5q18 66 61 137q-9 -1 -20.5 -2t-19 -2t-12.5 -2q-15 -2 -24.5 11t-0.5 32q14 28 39.5 37.5 t95.5 11.5q70 89 163 161h-1q-19 -13 -36 7q-20 22 -1 47q15 19 50 28q24 7 227 23q9 0 39 2q126 9 165 0zM457 757q-14 6 -8 28q22 39 33 51q58 65 94 82q30 14 48 11t37.5 -28t21.5 -59q1 -33 -17 -62q-8 -13 -24 -20t-28 -6t-12 6v3q10 33 9.5 56.5t-4 30.5t-10.5 17 q-50 -24 -104 -87q-22 -27 -36 -23z" />
<glyph unicode="&#xcb;" horiz-adv-x="406" d="M739 719q27 -8 19.5 -35t-40.5 -41q-17 -7 -33 -7.5t-43 3t-51 3.5q-9 0 -31 -1t-33 -2t-28.5 -3.5t-33 -8t-30.5 -13.5q-93 -54 -178 -161q95 4 268 39q19 13 33 -9q17 -27 -5 -55q-17 -21 -51 -31q-51 -14 -110.5 -19.5t-101.5 -3.5t-89 0q-44 -68 -73 -142 q-22 -52 -9 -115t53 -80q48 -17 110 -5.5t95 36.5q34 24 31 5q-4 -25 -52 -74q-45 -44 -87 -62q-41 -19 -96 -16.5t-85 26.5q-20 15 -28 21.5t-28.5 33.5t-27 53t-6.5 72.5t16 100.5q18 66 61 137q-9 -1 -20.5 -2t-19 -2t-12.5 -2q-15 -2 -24.5 11t-0.5 32q14 28 39.5 37.5 t95.5 11.5q70 89 163 161h-1q-19 -13 -36 7q-20 22 -1 47q15 19 50 28q24 7 227 23q9 0 39 2q126 9 165 0zM500 857q2 0 9.5 0.5t13 0.5t11.5 -1t9.5 -3.5t3.5 -6.5q0 -19 -18.5 -44t-37.5 -30q-20 -5 -26.5 -0.5t-14.5 21.5q-14 36 7 57q5 5 11.5 6.5t10.5 1.5t11.5 -1 t9.5 -1zM636 857q2 0 9.5 0.5t13 0.5t11.5 -1t9.5 -3.5t3.5 -6.5q0 -19 -18.5 -44t-37.5 -30q-20 -5 -26.5 -0.5t-14.5 21.5q-14 36 7 57q5 5 11.5 6.5t10.5 1.5t11.5 -1t9.5 -1z" />
<glyph unicode="&#xcc;" horiz-adv-x="222" d="M465 715q19 2 33.5 -9t13.5 -24q0 -30 -83 -34h-7q-180 -311 -246 -445q-68 -139 -94 -224q32 3 37 4q31 7 43 -12q12 -20 -23 -40q-20 -11 -54 -18l-19 -3q-6 -24 -25 -20q-10 1 -22 13q-31 -3 -53 -3q-33 0 -40 19.5t8 38.5q15 23 67 21q1 16 10 46q19 63 107.5 258.5 t127.5 270.5q26 55 42 85q-7 -1 -19 -2t-16 -3q-18 -7 -36 11t-7 38q10 17 20.5 25.5t30.5 13.5q16 5 75 0q20 26 33 30q11 2 34.5 -9t36.5 -27q16 0 25 -1zM441 833q4 -4 11 -10.5t10 -10t7 -8t5 -8t0 -6.5q-2 -11 -17 -14.5t-33 1.5q-37 9 -77 64q-31 43 -23 64 q5 14 16 23t19.5 9t12.5 -3v-1q1 -1 1 -2q9 -29 31 -57.5t37 -40.5z" />
<glyph unicode="&#xcd;" horiz-adv-x="222" d="M465 715q19 2 33.5 -9t13.5 -24q0 -30 -83 -34h-7q-180 -311 -246 -445q-68 -139 -94 -224q32 3 37 4q31 7 43 -12q12 -20 -23 -40q-20 -11 -54 -18l-19 -3q-6 -24 -25 -20q-10 1 -22 13q-31 -3 -53 -3q-33 0 -40 19.5t8 38.5q15 23 67 21q1 16 10 46q19 63 107.5 258.5 t127.5 270.5q26 55 42 85q-7 -1 -19 -2t-16 -3q-18 -7 -36 11t-7 38q10 17 20.5 25.5t30.5 13.5q16 5 75 0q20 26 33 30q11 2 34.5 -9t36.5 -27q16 0 25 -1zM442 833q59 59 75 98q0 2 1 3q3 4 11 3.5t19 -9.5t16 -23q8 -29 -28 -64q-49 -51 -83 -58q-47 -14 -48 7 q0 10 37 43z" />
<glyph unicode="&#xce;" horiz-adv-x="222" d="M465 715q19 2 33.5 -9t13.5 -24q0 -30 -83 -34h-7q-180 -311 -246 -445q-68 -139 -94 -224q32 3 37 4q31 7 43 -12q12 -20 -23 -40q-20 -11 -54 -18l-19 -3q-6 -24 -25 -20q-10 1 -22 13q-31 -3 -53 -3q-33 0 -40 19.5t8 38.5q15 23 67 21q1 16 10 46q19 63 107.5 258.5 t127.5 270.5q26 55 42 85q-7 -1 -19 -2t-16 -3q-18 -7 -36 11t-7 38q10 17 20.5 25.5t30.5 13.5q16 5 75 0q20 26 33 30q11 2 34.5 -9t36.5 -27q16 0 25 -1zM330 777q-14 6 -8 28q22 39 33 51q58 65 94 82q30 14 48 11t37.5 -28t21.5 -59q1 -33 -17 -62q-8 -13 -24 -20 t-28 -6t-12 6v3q10 33 9.5 56.5t-4 30.5t-10.5 17q-50 -24 -104 -87q-22 -27 -36 -23z" />
<glyph unicode="&#xcf;" horiz-adv-x="222" d="M465 715q19 2 33.5 -9t13.5 -24q0 -30 -83 -34h-7q-180 -311 -246 -445q-68 -139 -94 -224q32 3 37 4q31 7 43 -12q12 -20 -23 -40q-20 -11 -54 -18l-19 -3q-6 -24 -25 -20q-10 1 -22 13q-31 -3 -53 -3q-33 0 -40 19.5t8 38.5q15 23 67 21q1 16 10 46q19 63 107.5 258.5 t127.5 270.5q26 55 42 85q-7 -1 -19 -2t-16 -3q-18 -7 -36 11t-7 38q10 17 20.5 25.5t30.5 13.5q16 5 75 0q20 26 33 30q11 2 34.5 -9t36.5 -27q16 0 25 -1zM374 893q2 0 9.5 0.5t13 0.5t11.5 -1t9.5 -3.5t3.5 -6.5q0 -19 -18.5 -44t-37.5 -30q-20 -5 -26.5 -0.5t-14.5 21.5 q-14 36 7 57q5 5 11.5 6.5t10.5 1.5t11.5 -1t9.5 -1zM510 893q2 0 9.5 0.5t13 0.5t11.5 -1t9.5 -3.5t3.5 -6.5q0 -19 -18.5 -44t-37.5 -30q-20 -5 -26.5 -0.5t-14.5 21.5q-14 36 7 57q5 5 11.5 6.5t10.5 1.5t11.5 -1t9.5 -1z" />
<glyph unicode="&#xd0;" horiz-adv-x="670" d="M543 750q46 6 88.5 -28t66.5 -92.5t28.5 -132t-24.5 -146.5q-55 -144 -201 -244t-299 -106q-51 -2 -80.5 4.5t-36 15t-3.5 19.5q2 8 23 10.5t44 1.5t40 2q82 15 147.5 46.5t111.5 76t76.5 89.5t55.5 101q51 114 31 192.5t-95 78.5q-107 0 -227 -111l-30.5 -61t-33.5 -66 q13 1 32.5 3.5t30 3.5t25 2t23.5 0.5t18.5 -1.5t16.5 -4t12 -8q10 -9 8.5 -44.5t-24.5 -37.5q-15 -2 -56 3.5t-66 3.5l-59 -3q-13 -27 -55 -128q-14 -22 -36.5 -77t-31.5 -83q-10 -25 -28 -58q-28 -40 -43 -39q-22 2 -34 46t0 66l132 267q-28 -2 -35 -5q-9 -6 -23 -2t-19 17 q-1 4 -6.5 11.5t-6 11.5t3 10.5t18.5 12.5t42 13q36 9 66 12q52 107 86 168q67 119 87 179q13 28 57 4q12 -6 19 -20t2 -22q-1 -1 -46 -86q3 3 23.5 24t26.5 26t24.5 22t30 23t29.5 16.5t36 15.5t38 7z" />
<glyph unicode="&#xd1;" horiz-adv-x="535" d="M718 598q1 -16 -13 -41q-24 -42 -128 -216t-126 -212q-12 -21 -22.5 -47.5t-15.5 -37t-18.5 -18.5t-38.5 -9q-44 -2 -59 75q-10 51 0 254q5 102 13 192q-37 -59 -124.5 -251.5t-100.5 -214.5q-8 -13 -14.5 -32.5t-10.5 -34.5t-11 -29.5t-15 -21t-23 -6t-35 11.5 q-27 13 -26.5 41.5t31.5 83.5q9 16 65 136.5t72 151.5q24 51 103 163.5t97 126.5q10 8 19.5 9.5t16 -1t21.5 -9.5q35 -16 50.5 -33.5t14.5 -33t-4 -32.5q-1 -7 -4.5 -36.5t-8.5 -78t-10 -86.5l-19 -177q45 48 100 134.5t103.5 172t63.5 106.5q6 7 10.5 16t6.5 10 q14 6 26 -2.5t14 -23.5zM485 809q8 16 25.5 28t33.5 12q25 0 49 -32q12 -13 25 -13t18 7q2 2 4.5 6t4.5 6.5t4 5.5t4 4.5t4 2.5t4.5 0.5t4.5 -1.5q13 -8 0 -42q-6 -19 -30 -29t-48 0q-16 7 -27 19.5t-23 10.5q-10 -1 -25.5 -13.5t-21.5 -9.5q-21 10 -6 38z" />
<glyph unicode="&#xd2;" horiz-adv-x="665" d="M679 652q36 -65 42.5 -149.5t-23.5 -175.5q-49 -133 -170 -232.5t-259 -126.5q-34 -15 -80.5 -16.5t-79.5 13.5q-23 5 -30 19q-17 14 -27.5 24t-26.5 35t-22.5 51.5t-5 70t16.5 94.5q37 130 145.5 244t254.5 186q58 48 125 57q8 1 23 1l12 3q16 5 44.5 -18t48 -49.5 t12.5 -30.5zM576 344q51 120 31 202.5t-95 82.5q-46 0 -94 -23q-98 -57 -173 -146t-117 -197q-22 -52 -9 -115t53 -80q48 -16 108.5 -5t96.5 36q25 19 29 12q103 78 170 233zM614 833q4 -4 11 -10.5t10 -10t7 -8t5 -8t0 -6.5q-2 -11 -17 -14.5t-33 1.5q-37 9 -77 64 q-31 43 -23 64q5 14 16 23t19.5 9t12.5 -3l1 -1v-2q9 -29 31 -57.5t37 -40.5z" />
<glyph unicode="&#xd3;" horiz-adv-x="665" d="M679 652q36 -65 42.5 -149.5t-23.5 -175.5q-49 -133 -170 -232.5t-259 -126.5q-34 -15 -80.5 -16.5t-79.5 13.5q-23 5 -30 19q-17 14 -27.5 24t-26.5 35t-22.5 51.5t-5 70t16.5 94.5q37 130 145.5 244t254.5 186q58 48 125 57q8 1 23 1l12 3q16 5 44.5 -18t48 -49.5 t12.5 -30.5zM576 344q51 120 31 202.5t-95 82.5q-46 0 -94 -23q-98 -57 -173 -146t-117 -197q-22 -52 -9 -115t53 -80q48 -16 108.5 -5t96.5 36q25 19 29 12q103 78 170 233zM597 833q59 59 75 98q0 2 1 3q3 4 11 3.5t19 -9.5t16 -23q7 -29 -28 -64q-49 -51 -83 -58 q-47 -14 -48 7q0 10 37 43z" />
<glyph unicode="&#xd4;" horiz-adv-x="665" d="M679 652q36 -65 42.5 -149.5t-23.5 -175.5q-49 -133 -170 -232.5t-259 -126.5q-34 -15 -80.5 -16.5t-79.5 13.5q-23 5 -30 19q-17 14 -27.5 24t-26.5 35t-22.5 51.5t-5 70t16.5 94.5q37 130 145.5 244t254.5 186q58 48 125 57q8 1 23 1l12 3q16 5 44.5 -18t48 -49.5 t12.5 -30.5zM576 344q51 120 31 202.5t-95 82.5q-46 0 -94 -23q-98 -57 -173 -146t-117 -197q-22 -52 -9 -115t53 -80q48 -16 108.5 -5t96.5 36q25 19 29 12q103 78 170 233zM498 767q-14 6 -8 28q22 39 33 51q58 65 94 82q30 14 48 11t37.5 -28t21.5 -59q1 -33 -17 -62 q-8 -13 -24 -20t-28 -6t-12 6v3q10 33 9.5 56.5t-4 30.5t-10.5 17q-50 -24 -104 -87q-22 -27 -36 -23z" />
<glyph unicode="&#xd5;" horiz-adv-x="665" d="M679 652q36 -65 42.5 -149.5t-23.5 -175.5q-49 -133 -170 -232.5t-259 -126.5q-34 -15 -80.5 -16.5t-79.5 13.5q-23 5 -30 19q-17 14 -27.5 24t-26.5 35t-22.5 51.5t-5 70t16.5 94.5q37 130 145.5 244t254.5 186q58 48 125 57q8 1 23 1l12 3q16 5 44.5 -18t48 -49.5 t12.5 -30.5zM576 344q51 120 31 202.5t-95 82.5q-46 0 -94 -23q-98 -57 -173 -146t-117 -197q-22 -52 -9 -115t53 -80q48 -16 108.5 -5t96.5 36q25 19 29 12q103 78 170 233zM521 856q8 16 25.5 28t33.5 12q25 0 49 -32q12 -13 25 -13t18 7q2 2 4.5 6t4.5 6.5t4 5.5t4 4.5 t4 2.5t4.5 0.5t4.5 -1.5q13 -8 0 -42q-6 -19 -30 -29t-48 0q-16 7 -27 19.5t-23 10.5q-10 -1 -25.5 -13.5t-21.5 -9.5q-21 10 -6 38z" />
<glyph unicode="&#xd6;" horiz-adv-x="665" d="M679 652q36 -65 42.5 -149.5t-23.5 -175.5q-49 -133 -170 -232.5t-259 -126.5q-34 -15 -80.5 -16.5t-79.5 13.5q-23 5 -30 19q-17 14 -27.5 24t-26.5 35t-22.5 51.5t-5 70t16.5 94.5q37 130 145.5 244t254.5 186q58 48 125 57q8 1 23 1l12 3q16 5 44.5 -18t48 -49.5 t12.5 -30.5zM576 344q51 120 31 202.5t-95 82.5q-46 0 -94 -23q-98 -57 -173 -146t-117 -197q-22 -52 -9 -115t53 -80q48 -16 108.5 -5t96.5 36q25 19 29 12q103 78 170 233zM557 877q2 0 9.5 0.5t13 0.5t11.5 -1t9.5 -3.5t3.5 -6.5q0 -19 -18.5 -44t-37.5 -30 q-20 -5 -26.5 -0.5t-14.5 21.5q-14 36 7 57q5 5 11.5 6.5t10.5 1.5t11.5 -1t9.5 -1zM693 877q2 0 9.5 0.5t13 0.5t11.5 -1t9.5 -3.5t3.5 -6.5q0 -19 -18.5 -44t-37.5 -30q-20 -5 -26.5 -0.5t-14.5 21.5q-14 36 7 57q5 5 11.5 6.5t10.5 1.5t11.5 -1t9.5 -1z" />
<glyph unicode="&#xd8;" horiz-adv-x="665" d="M679 652q36 -65 42.5 -149.5t-23.5 -175.5q-49 -133 -170 -232.5t-259 -126.5q-44 -21 -106 -16q-19 -34 -22 -46q-9 -33 -31 -29q-11 2 -19.5 12t-12.5 32t7 55q-4 3 -6 8q-17 14 -27.5 24t-26.5 35t-22.5 51.5t-5 70t16.5 94.5q37 130 145.5 244t254.5 186 q58 48 125 57q7 1 21 1q55 81 81 88q18 5 48.5 -20t20.5 -44q-4 -6 -55 -75q34 -38 24 -44zM128 263q-16 -41 -12 -91.5t27 -79.5q123 212 329 524q5 6 6 10q-26 -6 -60 -20q-98 -57 -173 -146t-117 -197zM576 344q35 82 36 151.5t-30 102.5q-191 -268 -230 -329 q-81 -128 -130 -211q43 0 87 11.5t68 29.5q25 19 29 12q103 78 170 233z" />
<glyph unicode="&#xd9;" horiz-adv-x="639" d="M844 824q14 5 40.5 -18t16.5 -43q-1 -2 -24 -40.5t-50 -86t-61.5 -108.5t-70.5 -128.5t-64 -124.5q-96 -201 -96 -273q-2 -11 -4 -18.5t-11 -15t-24 -6.5q-13 0 -24 14t-16 44t10 77q8 26 42 101q-119 -157 -188 -190q-91 -38 -154.5 -34.5t-97.5 40.5q-35 39 -53 87 t-12.5 113.5t43.5 131.5q47 82 110 206.5t66 129.5q13 24 39.5 52.5t46.5 37.5q33 15 55 3.5t19 -41.5q-3 -18 -11 -32t-24 -33t-23 -29q-164 -249 -194 -326q-13 -30 -11.5 -68.5t11.5 -74t32.5 -60t51.5 -25.5q62 -4 169.5 83t232.5 252q26 51 62.5 121.5t42.5 83.5 q8 15 24 48t26.5 53t24.5 43.5t26 37t22 16.5zM596 833q4 -4 11 -10.5t10 -10t7 -8t5 -8t0 -6.5q-2 -11 -17 -14.5t-33 1.5q-37 9 -77 64q-31 43 -23 64q5 14 16 23t19.5 9t12.5 -3l1 -1v-2q9 -29 31 -57.5t37 -40.5z" />
<glyph unicode="&#xda;" horiz-adv-x="639" d="M844 824q14 5 40.5 -18t16.5 -43q-1 -2 -24 -40.5t-50 -86t-61.5 -108.5t-70.5 -128.5t-64 -124.5q-96 -201 -96 -273q-2 -11 -4 -18.5t-11 -15t-24 -6.5q-13 0 -24 14t-16 44t10 77q8 26 42 101q-119 -157 -188 -190q-91 -38 -154.5 -34.5t-97.5 40.5q-35 39 -53 87 t-12.5 113.5t43.5 131.5q47 82 110 206.5t66 129.5q13 24 39.5 52.5t46.5 37.5q33 15 55 3.5t19 -41.5q-3 -18 -11 -32t-24 -33t-23 -29q-164 -249 -194 -326q-13 -30 -11.5 -68.5t11.5 -74t32.5 -60t51.5 -25.5q62 -4 169.5 83t232.5 252q26 51 62.5 121.5t42.5 83.5 q8 15 24 48t26.5 53t24.5 43.5t26 37t22 16.5zM586 833q59 59 75 98q0 2 1 3q3 4 11 3.5t19 -9.5t16 -23q8 -29 -28 -64q-49 -51 -83 -58q-47 -14 -48 7q0 10 37 43z" />
<glyph unicode="&#xdb;" horiz-adv-x="639" d="M844 824q14 5 40.5 -18t16.5 -43q-1 -2 -24 -40.5t-50 -86t-61.5 -108.5t-70.5 -128.5t-64 -124.5q-96 -201 -96 -273q-2 -11 -4 -18.5t-11 -15t-24 -6.5q-13 0 -24 14t-16 44t10 77q8 26 42 101q-119 -157 -188 -190q-91 -38 -154.5 -34.5t-97.5 40.5q-35 39 -53 87 t-12.5 113.5t43.5 131.5q47 82 110 206.5t66 129.5q13 24 39.5 52.5t46.5 37.5q33 15 55 3.5t19 -41.5q-3 -18 -11 -32t-24 -33t-23 -29q-164 -249 -194 -326q-13 -30 -11.5 -68.5t11.5 -74t32.5 -60t51.5 -25.5q62 -4 169.5 83t232.5 252q26 51 62.5 121.5t42.5 83.5 q8 15 24 48t26.5 53t24.5 43.5t26 37t22 16.5zM498 777q-14 6 -8 28q22 39 33 51q58 65 94 82q30 14 48 11t37.5 -28t21.5 -59q1 -33 -17 -62q-8 -13 -24 -20t-28 -6t-12 6v3q10 33 9.5 56.5t-4 30.5t-10.5 17q-50 -24 -104 -87q-22 -27 -36 -23z" />
<glyph unicode="&#xdc;" horiz-adv-x="639" d="M844 824q14 5 40.5 -18t16.5 -43q-1 -2 -24 -40.5t-50 -86t-61.5 -108.5t-70.5 -128.5t-64 -124.5q-96 -201 -96 -273q-2 -11 -4 -18.5t-11 -15t-24 -6.5q-13 0 -24 14t-16 44t10 77q8 26 42 101q-119 -157 -188 -190q-91 -38 -154.5 -34.5t-97.5 40.5q-35 39 -53 87 t-12.5 113.5t43.5 131.5q47 82 110 206.5t66 129.5q13 24 39.5 52.5t46.5 37.5q33 15 55 3.5t19 -41.5q-3 -18 -11 -32t-24 -33t-23 -29q-164 -249 -194 -326q-13 -30 -11.5 -68.5t11.5 -74t32.5 -60t51.5 -25.5q62 -4 169.5 83t232.5 252q26 51 62.5 121.5t42.5 83.5 q8 15 24 48t26.5 53t24.5 43.5t26 37t22 16.5zM555 913q2 0 9.5 0.5t13 0.5t11.5 -1t9.5 -3.5t3.5 -6.5q0 -19 -18.5 -44t-37.5 -30q-20 -5 -26.5 -0.5t-14.5 21.5q-14 36 7 57q5 5 11.5 6.5t10.5 1.5t11.5 -1t9.5 -1zM691 913q2 0 9.5 0.5t13 0.5t11.5 -1t9.5 -3.5 t3.5 -6.5q0 -19 -18.5 -44t-37.5 -30q-20 -5 -26.5 -0.5t-14.5 21.5q-14 36 7 57q5 5 11.5 6.5t10.5 1.5t11.5 -1t9.5 -1z" />
<glyph unicode="&#xdd;" horiz-adv-x="438" d="M598 786q34 -54 -37 -181q-17 -30 -110.5 -251.5t-124.5 -265.5q-83 -117 -129.5 -166.5t-67.5 -43.5t-55.5 31t-30.5 35q3 8 16 18.5t32.5 24t56 50t76.5 87.5q78 102 217 426q-88 -133 -153 -226q-30 -42 -50 -55t-44 -11q-58 0 -78 60q-12 33 -53 207q-25 108 -34 150 q-22 10 -26.5 34t4.5 45.5t20 28.5q21 6 30.5 3.5t34.5 -14.5q41 -19 60.5 -37t19 -31.5t-1.5 -27.5q-4 -17 22 -156q8 -48 26 -137q15 -32 71.5 31.5t126 165t80.5 113.5l6 7q9 21 18 43l8 22q13 31 32.5 38.5t37.5 -17.5zM309 833q59 59 75 98q0 2 1 3q3 4 11 3.5t19 -9.5 t16 -23q8 -29 -28 -64q-49 -51 -83 -58q-47 -14 -48 7q0 10 37 43z" />
<glyph unicode="&#xde;" horiz-adv-x="588" d="M341 677l-89 -171q53 39 109 57t101 13.5t80 -22t52 -47.5t11 -65q-6 -36 -29.5 -76t-69 -84t-107 -82t-150.5 -68t-192 -43q-8 -20 -19 -49t-14 -35q-15 -39 -29 -59q-28 -40 -42 -39q-22 2 -34.5 46.5t-0.5 66.5q5 8 119 239t139 277q30 52 56 107t31 71q14 30 57 5 q12 -7 19 -20.5t2 -21.5zM477 419q13 75 -52 72q-57 -3 -212 -83l-1 -1h-1l-1 -1h-1l-2 -1l-1 -1h-1l-1 -1l-1 -1h-1l-1 -1h-1l-2 -1q-75 -151 -107 -236q-6 -10 -9 -17q139 40 259.5 115.5t135.5 156.5z" />
<glyph unicode="&#xdf;" horiz-adv-x="833" d="M649 692q46 0 80 -18.5t44.5 -54t-21.5 -87.5q-33 -56 -116 -98t-151 -52q-51 -8 -79.5 -25t-32 -37t12.5 -42t49 -40q39 -21 46.5 -63.5t-21.5 -90t-87 -79.5q-39 -22 -95.5 -28t-99.5 11.5t-39 58.5q2 24 35 60q31 34 35 13q1 -4 0 -10q-2 -28 20 -40t53 -3 q35 9 61.5 39t11.5 55q-9 14 -41.5 25.5t-40.5 16.5q-35 23 -36 61.5t29 77t81 64.5q32 15 96 24t115 28.5t83 68.5q37 58 -35 77q-59 14 -124 -3q-10 -3 -18 -6q-58 -24 -121.5 -90t-107.5 -133q-165 -252 -186 -375q-1 -9 -2 -30.5t-3 -32t-12 -19.5t-29 -6q-33 4 -57 49 t-8 75q25 40 60.5 122.5t64.5 129.5q71 116 127.5 179t148.5 123q154 105 310 105z" />
<glyph unicode="&#xe0;" d="M256 257q-13 0 -76 -41.5t-63 -61.5q4 0 84.5 35.5t84.5 33.5q12 -9 15 -22t-6 -23q-30 -36 -24 -37q2 0 10 5q16 11 109.5 46t133.5 48q18 6 17 -4q-3 -19 -43 -50q-9 -7 -19 -13q-37 -23 -119 -65.5t-105 -51.5q-28 -10 -56.5 5t-15.5 52q-15 -9 -100 -42 q-23 -8 -55.5 14.5t-25.5 67.5q7 44 65 89.5t92 53.5q78 19 113 -20q5 -5 -1 -13t-15 -6zM258 389q4 -4 11 -10.5t10 -10t7 -8t5 -8t0 -6.5q-2 -11 -17 -14.5t-33 1.5q-37 9 -77 64q-31 43 -23 64q5 14 16 23t19.5 9t12.5 -3l1 -1v-2q9 -29 31 -57.5t37 -40.5z" />
<glyph unicode="&#xe1;" d="M256 257q-13 0 -76 -41.5t-63 -61.5q4 0 84.5 35.5t84.5 33.5q12 -9 15 -22t-6 -23q-30 -36 -24 -37q2 0 10 5q16 11 109.5 46t133.5 48q18 6 17 -4q-3 -19 -43 -50q-9 -7 -19 -13q-37 -23 -119 -65.5t-105 -51.5q-28 -10 -56.5 5t-15.5 52q-15 -9 -100 -42 q-23 -8 -55.5 14.5t-25.5 67.5q7 44 65 89.5t92 53.5q78 19 113 -20q5 -5 -1 -13t-15 -6zM209 387q59 59 75 98q0 2 1 3q3 4 11 3.5t19 -9.5t16 -23q7 -29 -28 -64q-49 -51 -83 -58q-47 -14 -48 7q0 10 37 43z" />
<glyph unicode="&#xe2;" d="M256 257q-13 0 -76 -41.5t-63 -61.5q4 0 84.5 35.5t84.5 33.5q12 -9 15 -22t-6 -23q-30 -36 -24 -37q2 0 10 5q16 11 109.5 46t133.5 48q18 6 17 -4q-3 -19 -43 -50q-9 -7 -19 -13q-37 -23 -119 -65.5t-105 -51.5q-28 -10 -56.5 5t-15.5 52q-15 -9 -100 -42 q-23 -8 -55.5 14.5t-25.5 67.5q7 44 65 89.5t92 53.5q78 19 113 -20q5 -5 -1 -13t-15 -6zM116 355q-14 6 -8 28q22 39 33 51q58 65 94 82q30 14 48 11t37.5 -28t21.5 -59q1 -33 -17 -62q-8 -13 -24 -20t-28 -6t-12 6v3q10 33 9.5 56.5t-4 30.5t-10.5 17q-50 -24 -104 -87 q-22 -27 -36 -23z" />
<glyph unicode="&#xe3;" d="M256 257q-13 0 -76 -41.5t-63 -61.5q4 0 84.5 35.5t84.5 33.5q12 -9 15 -22t-6 -23q-30 -36 -24 -37q2 0 10 5q16 11 109.5 46t133.5 48q18 6 17 -4q-3 -19 -43 -50q-9 -7 -19 -13q-37 -23 -119 -65.5t-105 -51.5q-28 -10 -56.5 5t-15.5 52q-15 -9 -100 -42 q-23 -8 -55.5 14.5t-25.5 67.5q7 44 65 89.5t92 53.5q78 19 113 -20q5 -5 -1 -13t-15 -6zM133 401q8 16 25.5 28t33.5 12q25 0 49 -32q12 -13 25 -13t18 7q2 2 4.5 6t4.5 6.5t4 5.5t4 4.5t4 2.5t4.5 0.5t4.5 -1.5q13 -8 0 -42q-6 -19 -30 -29t-48 0q-16 7 -27 19.5t-23 10.5 q-10 -1 -25.5 -13.5t-21.5 -9.5q-21 10 -6 38z" />
<glyph unicode="&#xe4;" d="M256 257q-13 0 -76 -41.5t-63 -61.5q4 0 84.5 35.5t84.5 33.5q12 -9 15 -22t-6 -23q-30 -36 -24 -37q2 0 10 5q16 11 109.5 46t133.5 48q18 6 17 -4q-3 -19 -43 -50q-9 -7 -19 -13q-37 -23 -119 -65.5t-105 -51.5q-28 -10 -56.5 5t-15.5 52q-15 -9 -100 -42 q-23 -8 -55.5 14.5t-25.5 67.5q7 44 65 89.5t92 53.5q78 19 113 -20q5 -5 -1 -13t-15 -6zM159 451q2 0 9.5 0.5t13 0.5t11.5 -1t9.5 -3.5t3.5 -6.5q0 -19 -18.5 -44t-37.5 -30q-20 -5 -26.5 -0.5t-14.5 21.5q-14 36 7 57q5 5 11.5 6.5t10.5 1.5t11.5 -1t9.5 -1zM295 451 q2 0 9.5 0.5t13 0.5t11.5 -1t9.5 -3.5t3.5 -6.5q0 -19 -18.5 -44t-37.5 -30q-20 -5 -26.5 -0.5t-14.5 21.5q-14 36 7 57q5 5 11.5 6.5t10.5 1.5t11.5 -1t9.5 -1z" />
<glyph unicode="&#xe5;" d="M256 257q-13 0 -76 -41.5t-63 -61.5q4 0 84.5 35.5t84.5 33.5q12 -9 15 -22t-6 -23q-30 -36 -24 -37q2 0 10 5q16 11 109.5 46t133.5 48q18 6 17 -4q-3 -19 -43 -50q-9 -7 -19 -13q-37 -23 -119 -65.5t-105 -51.5q-28 -10 -56.5 5t-15.5 52q-15 -9 -100 -42 q-23 -8 -55.5 14.5t-25.5 67.5q7 44 65 89.5t92 53.5q78 19 113 -20q5 -5 -1 -13t-15 -6zM278 500q16 -3 30.5 -28t-1.5 -58q-17 -36 -59.5 -60t-72.5 -18q-26 8 -25.5 36t18.5 46q60 68 91 75l7 2q-1 2 3.5 4t8.5 1zM261 416q12 13 18 43q-71 -55 -74 -71q-2 -4 3 -4 q18 1 44 23z" />
<glyph unicode="&#xe6;" horiz-adv-x="597" d="M601 153q44 26 42 5q-2 -19 -27 -39q-2 -2 -5 -4q-34 -21 -131 -68.5t-143 -57.5q-50 -11 -75 17t-18 63q0 3 1 4q-33 -11 -62 -20q-15 -9 -100 -42q-23 -8 -55.5 14.5t-25.5 67.5q7 44 65 89.5t92 53.5q78 19 113 -20q5 -5 -1 -13t-15 -6q-13 0 -76 -41.5t-63 -61.5 q2 0 29.5 11t69 27t65.5 25q27 50 65 86q63 59 114 52q21 -2 44.5 -31t27.5 -59q2 -27 -27 -50t-71 -43q-4 -2 -18.5 -9t-19.5 -9t-16 -5t-17 -1t-14 7.5t-14 15.5q-6 -8 -9 -17t4.5 -17.5t31.5 -7.5q39 2 113.5 28t125.5 56zM443 211q-34 -13 -63 -48q19 5 39.5 18t23.5 30 z" />
<glyph unicode="&#xe7;" horiz-adv-x="406" d="M480 219q17 10 16 -3t-20 -39q-23 -29 -175 -116.5t-200 -96.5q-2 -6 -2 -7q8 0 11 -1q29 -6 44 -18q32 -23 29 -47q-6 -40 -24 -53q-25 -18 -56 -20q-41 -4 -55 10q-22 21 -14 39q15 22 41 8q1 -1 8 -5t8 -4t3.5 -1.5t4.5 -2t6.5 1t9.5 5.5q14 11 14 25q1 11 -13 22 t-44 10q-15 0 -15 16q-2 9 5 24q-47 14 -66 60q-26 64 0 114q18 38 91 115.5t108 85.5q25 5 56.5 -3t42.5 -30q8 -15 9 -26t-3 -16.5t-13 -4.5q-5 0 -12 8t-14.5 10t-30.5 -10q-33 -19 -83 -77t-62 -90q-13 -36 3.5 -52.5t67.5 0.5q58 18 155.5 69t168.5 100z" />
<glyph unicode="&#xe8;" horiz-adv-x="355" d="M349 153q44 26 42 5q-2 -19 -27 -39q-2 -2 -5 -4q-34 -21 -131 -68.5t-143 -57.5q-50 -11 -75 17t-18 63q7 34 36 86.5t66 87.5q63 59 114 52q21 -2 44.5 -31t27.5 -59q2 -27 -27 -50t-71 -43q-4 -2 -18.5 -9t-19.5 -9t-16 -5t-17 -1t-14 7.5t-14 15.5q-6 -8 -9 -17 t4.5 -17.5t31.5 -7.5q39 2 113.5 28t125.5 56zM191 211q-34 -13 -63 -48q19 5 39.5 18t23.5 30zM228 394q4 -4 11 -10.5t10 -10t7 -8t5 -8t0 -6.5q-2 -11 -17 -14.5t-33 1.5q-37 9 -77 64q-31 43 -23 64q5 14 16 23t19.5 9t12.5 -3q0 -1 1 -3q9 -29 31 -57.5t37 -40.5z" />
<glyph unicode="&#xe9;" horiz-adv-x="355" d="M349 153q44 26 42 5q-2 -19 -27 -39q-2 -2 -5 -4q-34 -21 -131 -68.5t-143 -57.5q-50 -11 -75 17t-18 63q7 34 36 86.5t66 87.5q63 59 114 52q21 -2 44.5 -31t27.5 -59q2 -27 -27 -50t-71 -43q-4 -2 -18.5 -9t-19.5 -9t-16 -5t-17 -1t-14 7.5t-14 15.5q-6 -8 -9 -17 t4.5 -17.5t31.5 -7.5q39 2 113.5 28t125.5 56zM191 211q-34 -13 -63 -48q19 5 39.5 18t23.5 30zM202 389q59 59 75 98q0 2 1 3q3 4 11 3.5t19 -9.5t16 -23q8 -29 -28 -64q-49 -51 -83 -58q-47 -14 -48 7q0 10 37 43z" />
<glyph unicode="&#xea;" horiz-adv-x="355" d="M349 153q44 26 42 5q-2 -19 -27 -39q-2 -2 -5 -4q-34 -21 -131 -68.5t-143 -57.5q-50 -11 -75 17t-18 63q7 34 36 86.5t66 87.5q63 59 114 52q21 -2 44.5 -31t27.5 -59q2 -27 -27 -50t-71 -43q-4 -2 -18.5 -9t-19.5 -9t-16 -5t-17 -1t-14 7.5t-14 15.5q-6 -8 -9 -17 t4.5 -17.5t31.5 -7.5q39 2 113.5 28t125.5 56zM191 211q-34 -13 -63 -48q19 5 39.5 18t23.5 30zM115 326q-14 6 -8 28q22 39 33 51q58 65 94 82q30 14 48 11t37.5 -28t21.5 -59q1 -33 -17 -62q-8 -13 -24 -20t-28 -6t-12 6v3q10 33 9.5 56.5t-4 30.5t-10.5 17 q-50 -24 -104 -87q-22 -27 -36 -23z" />
<glyph unicode="&#xeb;" horiz-adv-x="355" d="M349 153q44 26 42 5q-2 -19 -27 -39q-2 -2 -5 -4q-34 -21 -131 -68.5t-143 -57.5q-50 -11 -75 17t-18 63q7 34 36 86.5t66 87.5q63 59 114 52q21 -2 44.5 -31t27.5 -59q2 -27 -27 -50t-71 -43q-4 -2 -18.5 -9t-19.5 -9t-16 -5t-17 -1t-14 7.5t-14 15.5q-6 -8 -9 -17 t4.5 -17.5t31.5 -7.5q39 2 113.5 28t125.5 56zM191 211q-34 -13 -63 -48q19 5 39.5 18t23.5 30zM161 428q2 0 9.5 0.5t13 0.5t11.5 -1t9.5 -3.5t3.5 -6.5q0 -19 -18.5 -44t-37.5 -30q-20 -5 -26.5 -0.5t-14.5 21.5q-14 36 7 57q5 5 11.5 6.5t10.5 1.5t11.5 -1t9.5 -1z M297 428q2 0 9.5 0.5t13 0.5t11.5 -1t9.5 -3.5t3.5 -6.5q0 -19 -18.5 -44t-37.5 -30q-20 -5 -26.5 -0.5t-14.5 21.5q-14 36 7 57q5 5 11.5 6.5t10.5 1.5t11.5 -1t9.5 -1z" />
<glyph unicode="&#xec;" horiz-adv-x="253" d="M320 185q29 17 32 3q3 -12 -20 -33q-35 -30 -131 -99t-121 -75q-30 -9 -53 15.5t-19 65.5q4 39 30 103t47 89q27 33 42 33q14 0 35.5 -23.5t19.5 -35.5q0 -4 -1 -7t-2 -5t-4 -4l-4.5 -3t-7 -4t-8.5 -5q-16 -12 -45 -76q-28 -60 -9 -55t102 50t117 66zM181 420 q4 -4 11 -10.5t10 -10t7 -8t5 -8t0 -6.5q-2 -11 -17 -14.5t-33 1.5q-37 9 -77 64q-31 43 -23 64q5 14 16 23t19.5 9t12.5 -3v-1l1 -2q9 -29 31 -57.5t37 -40.5z" />
<glyph unicode="&#xed;" horiz-adv-x="253" d="M320 185q29 17 32 3q3 -12 -20 -33q-35 -30 -131 -99t-121 -75q-30 -9 -53 15.5t-19 65.5q4 39 30 103t47 89q27 33 42 33q14 0 35.5 -23.5t19.5 -35.5q0 -4 -1 -7t-2 -5t-4 -4l-4.5 -3t-7 -4t-8.5 -5q-16 -12 -45 -76q-28 -60 -9 -55t102 50t117 66zM182 426 q59 59 75 98q0 2 1 3q3 4 11 3.5t19 -9.5t16 -23q8 -28 -28 -64q-49 -51 -83 -58q-47 -14 -48 7q0 10 37 43z" />
<glyph unicode="&#xee;" horiz-adv-x="253" d="M320 185q29 17 32 3q3 -12 -20 -33q-35 -30 -131 -99t-121 -75q-30 -9 -53 15.5t-19 65.5q4 39 30 103t47 89q27 33 42 33q14 0 35.5 -23.5t19.5 -35.5q0 -4 -1 -7t-2 -5t-4 -4l-4.5 -3t-7 -4t-8.5 -5q-16 -12 -45 -76q-28 -60 -9 -55t102 50t117 66zM71 361q-14 6 -8 28 q22 39 33 51q58 65 94 82q30 14 48 11t37.5 -28t21.5 -59q1 -33 -17 -62q-8 -13 -24 -20t-28 -6t-12 6v3q10 33 9.5 56.5t-4 30.5t-10.5 17q-50 -24 -104 -87q-22 -27 -36 -23z" />
<glyph unicode="&#xef;" horiz-adv-x="253" d="M320 185q29 17 32 3q3 -12 -20 -33q-35 -30 -131 -99t-121 -75q-30 -9 -53 15.5t-19 65.5q4 39 30 103t47 89q27 33 42 33q14 0 35.5 -23.5t19.5 -35.5q0 -4 -1 -7t-2 -5t-4 -4l-4.5 -3t-7 -4t-8.5 -5q-16 -12 -45 -76q-28 -60 -9 -55t102 50t117 66zM106 454 q2 0 9.5 0.5t13 0.5t11.5 -1t9.5 -3.5t3.5 -6.5q0 -19 -18.5 -44t-37.5 -30q-20 -5 -26.5 -0.5t-14.5 21.5q-14 36 7 57q5 5 11.5 6.5t10.5 1.5t11.5 -1t9.5 -1zM242 454q2 0 9.5 0.5t13 0.5t11.5 -1t9.5 -3.5t3.5 -6.5q0 -19 -18.5 -44t-37.5 -30q-20 -5 -26.5 -0.5 t-14.5 21.5q-14 36 7 57q5 5 11.5 6.5t10.5 1.5t11.5 -1t9.5 -1z" />
<glyph unicode="&#xf0;" horiz-adv-x="504" d="M555 525q13 -10 17 -42t-14 -42q-14 -4 -52 -6.5t-61 -8.5q-1 -1 -3 -1q14 -83 0 -173q-12 -69 -63 -148.5t-128 -114.5q-52 -25 -112 -29.5t-85 12.5q-15 9 -30 34t-24.5 59.5t1.5 80.5t45 87q50 63 123.5 86.5t130.5 -14.5q43 -31 21 -52q-15 -13 -30 -7q-10 4 -29 6 t-47 -0.5t-58 -21.5t-50 -54q-33 -53 1 -90.5t86 -18.5q115 46 141 206q12 71 3 125q-53 -14 -62 -20q-8 -8 -21 -6.5t-21 13.5q-2 2 -8 9t-7 11t1 11t14.5 16t34.5 20q28 14 43 19q0 1 -1 2t-2 3q-11 19 -36.5 33t-46.5 8q-13 -4 -16 12q-6 25 30 52q26 22 46 23 q35 5 72 -22q39 -27 62 -80q11 3 36 11.5t34 11t24 5.5t24 1.5t17 -6.5z" />
<glyph unicode="&#xf1;" horiz-adv-x="506" d="M195 355q12 -6 18 -18.5t1 -20.5q-48 -64 -92 -192q31 22 83 72.5t91 83t57 31.5q33 -2 43.5 -24t-5.5 -60q-26 -56 -24 -109q2 -29 15 -26q43 13 127 70q18 10 16 -4q-2 -27 -47 -70q-4 -3 -7 -6q-38 -35 -54 -48t-42 -25.5t-50 -8.5t-34.5 45t-6.5 89.5t20 74.5 q-6 4 -30 -21t-66.5 -76t-60.5 -70q-43 -45 -65.5 -57.5t-44.5 -10.5q-19 2 -31 42.5t0 59.5q2 3 14 20.5t21 37t23 55.5q12 31 26.5 69.5t24 62t11.5 29.5q6 13 24 15.5t45 -10.5zM218 458q8 16 25.5 28t33.5 12q25 0 49 -32q12 -13 25 -13t18 7q2 2 4.5 6t4.5 6.5t4 5.5 t4 4.5t4 2.5t4.5 0.5t4.5 -1.5q13 -8 0 -42q-6 -19 -30 -29t-48 0q-16 7 -27 19.5t-23 10.5q-10 -1 -25.5 -13.5t-21.5 -9.5q-21 10 -6 38z" />
<glyph unicode="&#xf2;" horiz-adv-x="244" d="M156 286l6 -5q7 -5 10.5 -8t11.5 -10t13 -13l12.5 -15t12 -17t9 -18.5t6.5 -20.5t1.5 -22t-3.5 -24q-16 -59 -76.5 -98t-110.5 -28q-30 6 -44.5 31.5t-11.5 53.5t17 48q79 111 121 120l11 3q-5 8 -11 12q-24 19 -3 19q16 1 29 -8zM91 104q-2 -11 23 2q21 12 34 30 q11 14 11 48q-21 -19 -43.5 -45.5t-24.5 -34.5zM186 390q4 -4 11 -10.5t10 -10t7 -8t5 -8t0 -6.5q-2 -11 -17 -14.5t-33 1.5q-37 9 -77 64q-31 43 -23 64q5 14 16 23t19.5 9t12.5 -3q0 -1 1 -3q9 -29 31 -57.5t37 -40.5z" />
<glyph unicode="&#xf3;" horiz-adv-x="244" d="M156 286l6 -5q7 -5 10.5 -8t11.5 -10t13 -13l12.5 -15t12 -17t9 -18.5t6.5 -20.5t1.5 -22t-3.5 -24q-16 -59 -76.5 -98t-110.5 -28q-30 6 -44.5 31.5t-11.5 53.5t17 48q79 111 121 120l11 3q-5 8 -11 12q-24 19 -3 19q16 1 29 -8zM91 104q-2 -11 23 2q21 12 34 30 q11 14 11 48q-21 -19 -43.5 -45.5t-24.5 -34.5zM187 388q59 59 75 98q0 2 1 3q3 4 11 3.5t19 -9.5t16 -23q7 -29 -28 -64q-49 -51 -83 -58q-47 -14 -48 7q0 10 37 43z" />
<glyph unicode="&#xf4;" horiz-adv-x="244" d="M156 286l6 -5q7 -5 10.5 -8t11.5 -10t13 -13l12.5 -15t12 -17t9 -18.5t6.5 -20.5t1.5 -22t-3.5 -24q-16 -59 -76.5 -98t-110.5 -28q-30 6 -44.5 31.5t-11.5 53.5t17 48q79 111 121 120l11 3q-5 8 -11 12q-24 19 -3 19q16 1 29 -8zM91 104q-2 -11 23 2q21 12 34 30 q11 14 11 48q-21 -19 -43.5 -45.5t-24.5 -34.5zM79 326q-14 6 -8 28q22 39 33 51q58 65 94 82q30 14 48 11t37.5 -28t21.5 -59q1 -33 -17 -62q-8 -13 -24 -20t-28 -6t-12 6v3q10 33 9.5 56.5t-4 30.5t-10.5 17q-50 -24 -104 -87q-22 -27 -36 -23z" />
<glyph unicode="&#xf5;" horiz-adv-x="244" d="M156 286l6 -5q7 -5 10.5 -8t11.5 -10t13 -13l12.5 -15t12 -17t9 -18.5t6.5 -20.5t1.5 -22t-3.5 -24q-16 -59 -76.5 -98t-110.5 -28q-30 6 -44.5 31.5t-11.5 53.5t17 48q79 111 121 120l11 3q-5 8 -11 12q-24 19 -3 19q16 1 29 -8zM91 104q-2 -11 23 2q21 12 34 30 q11 14 11 48q-21 -19 -43.5 -45.5t-24.5 -34.5zM99 409q8 16 25.5 28t33.5 12q25 0 49 -32q12 -13 25 -13t18 7q2 2 4.5 6t4.5 6.5t4 5.5t4 4.5t4 2.5t4.5 0.5t4.5 -1.5q13 -8 0 -42q-6 -19 -30 -29t-48 0q-16 7 -27 19.5t-23 10.5q-10 -1 -25.5 -13.5t-21.5 -9.5 q-21 10 -6 38z" />
<glyph unicode="&#xf6;" horiz-adv-x="244" d="M156 286l6 -5q7 -5 10.5 -8t11.5 -10t13 -13l12.5 -15t12 -17t9 -18.5t6.5 -20.5t1.5 -22t-3.5 -24q-16 -59 -76.5 -98t-110.5 -28q-30 6 -44.5 31.5t-11.5 53.5t17 48q79 111 121 120l11 3q-5 8 -11 12q-24 19 -3 19q16 1 29 -8zM91 104q-2 -11 23 2q21 12 34 30 q11 14 11 48q-21 -19 -43.5 -45.5t-24.5 -34.5zM128 451q2 0 9.5 0.5t13 0.5t11.5 -1t9.5 -3.5t3.5 -6.5q0 -19 -18.5 -44t-37.5 -30q-20 -5 -26.5 -0.5t-14.5 21.5q-14 36 7 57q5 5 11.5 6.5t10.5 1.5t11.5 -1t9.5 -1zM264 451q2 0 9.5 0.5t13 0.5t11.5 -1t9.5 -3.5 t3.5 -6.5q0 -19 -18.5 -44t-37.5 -30q-20 -5 -26.5 -0.5t-14.5 21.5q-14 36 7 57q5 5 11.5 6.5t10.5 1.5t11.5 -1t9.5 -1z" />
<glyph unicode="&#xf7;" horiz-adv-x="376" d="M325 168q8 -9 5 -34.5t-19 -27.5q-12 -2 -43 3.5t-49 5.5q-132 0 -143 -5q-25 -9 -32 13q-1 3 -4.5 9t-4 9t2.5 8t14.5 9t32.5 8q28 7 120 9q13 1 33.5 2.5t30.5 2t22.5 0t20.5 -3.5t13 -8zM105 68q18 6 46.5 -1.5t42.5 -23.5q12 -17 10 -25t-15 -21q-11 -11 -27.5 -15 t-28.5 1q-6 3 -10 8t-5.5 9t-3 11.5t-2.5 9.5q-1 1 -4 8.5t-5 12t-3.5 11t0 10.5t5.5 5zM192 213q-6 3 -10 8t-5.5 9t-3 11.5t-2.5 9.5q-1 1 -4 8.5t-5 12t-3.5 11t0 10.5t5.5 5q18 6 46.5 -1.5t42.5 -23.5q12 -17 10 -25t-15 -21q-11 -11 -27.5 -15t-28.5 1z" />
<glyph unicode="&#xf8;" horiz-adv-x="244" d="M287 448q15 5 44.5 -15.5t18.5 -39.5q-4 -6 -21.5 -27t-46.5 -60t-61 -88q25 -40 14 -85q-12 -44 -52 -79.5t-86 -45.5q-46 -90 -59 -138q-3 -14 -8.5 -21.5t-18.5 -5.5q-11 2 -20 14t-11 38.5t17 68.5l24 54q-27 19 -29 59.5t17 62.5q79 111 121 120l11 3q-5 8 -11 12 q-24 19 -3 19q16 1 29 -8q1 0 2 -1t3 -2.5t3 -2.5q8 13 25.5 42t28 45.5t24.5 36.5t25 31t20 13z" />
<glyph unicode="&#xf9;" horiz-adv-x="376" d="M176 294q24 -14 -6 -54q-35 -49 -63 -116q-13 -31 -2 -24q37 28 95 82.5t77 93.5q8 18 14 20.5t20 0.5q20 -3 46 -20t15 -33q-15 -21 -51.5 -86.5t-43.5 -88.5q-6 -14 -7 -30.5t-3 -26t-9 -14.5q-21 -15 -51 18q-24 24 -4 105q-18 -14 -45.5 -39.5t-48.5 -40t-45 -20.5 q-19 -5 -33.5 3t-22 24.5t-10.5 27t-5 22.5q-2 14 82 172q11 22 18 27.5t25 6.5q33 1 58 -10zM258 418q4 -4 11 -10.5t10 -10t7 -8t5 -8t0 -6.5q-2 -11 -17 -14.5t-33 1.5q-37 9 -77 64q-31 43 -23 64q5 14 16 23t19.5 9t12.5 -3q0 -1 1 -3q9 -29 31 -57.5t37 -40.5z" />
<glyph unicode="&#xfa;" horiz-adv-x="376" d="M176 294q24 -14 -6 -54q-35 -49 -63 -116q-13 -31 -2 -24q37 28 95 82.5t77 93.5q8 18 14 20.5t20 0.5q20 -3 46 -20t15 -33q-15 -21 -51.5 -86.5t-43.5 -88.5q-6 -14 -7 -30.5t-3 -26t-9 -14.5q-21 -15 -51 18q-24 24 -4 105q-18 -14 -45.5 -39.5t-48.5 -40t-45 -20.5 q-19 -5 -33.5 3t-22 24.5t-10.5 27t-5 22.5q-2 14 82 172q11 22 18 27.5t25 6.5q33 1 58 -10zM258 415q59 59 75 98q0 2 1 3q3 4 11 3.5t19 -9.5t16 -23q8 -29 -28 -64q-49 -51 -83 -58q-47 -14 -48 7q0 10 37 43z" />
<glyph unicode="&#xfb;" horiz-adv-x="376" d="M176 294q24 -14 -6 -54q-35 -49 -63 -116q-13 -31 -2 -24q37 28 95 82.5t77 93.5q8 18 14 20.5t20 0.5q20 -3 46 -20t15 -33q-15 -21 -51.5 -86.5t-43.5 -88.5q-6 -14 -7 -30.5t-3 -26t-9 -14.5q-21 -15 -51 18q-24 24 -4 105q-18 -14 -45.5 -39.5t-48.5 -40t-45 -20.5 q-19 -5 -33.5 3t-22 24.5t-10.5 27t-5 22.5q-2 14 82 172q11 22 18 27.5t25 6.5q33 1 58 -10zM155 358q-14 6 -8 28q22 39 33 51q58 65 94 82q30 14 48 11t37.5 -28t21.5 -59q1 -33 -17 -62q-8 -13 -24 -20t-28 -6t-12 6v3q10 33 9.5 56.5t-4 30.5t-10.5 17 q-50 -24 -104 -87q-22 -27 -36 -23z" />
<glyph unicode="&#xfc;" horiz-adv-x="376" d="M176 294q24 -14 -6 -54q-35 -49 -63 -116q-13 -31 -2 -24q37 28 95 82.5t77 93.5q8 18 14 20.5t20 0.5q20 -3 46 -20t15 -33q-15 -21 -51.5 -86.5t-43.5 -88.5q-6 -14 -7 -30.5t-3 -26t-9 -14.5q-21 -15 -51 18q-24 24 -4 105q-18 -14 -45.5 -39.5t-48.5 -40t-45 -20.5 q-19 -5 -33.5 3t-22 24.5t-10.5 27t-5 22.5q-2 14 82 172q11 22 18 27.5t25 6.5q33 1 58 -10zM217 461q2 0 9.5 0.5t13 0.5t11.5 -1t9.5 -3.5t3.5 -6.5q0 -19 -18.5 -44t-37.5 -30q-20 -5 -26.5 -0.5t-14.5 21.5q-14 36 7 57q5 5 11.5 6.5t10.5 1.5t11.5 -1t9.5 -1zM353 461 q2 0 9.5 0.5t13 0.5t11.5 -1t9.5 -3.5t3.5 -6.5q0 -19 -18.5 -44t-37.5 -30q-20 -5 -26.5 -0.5t-14.5 21.5q-14 36 7 57q5 5 11.5 6.5t10.5 1.5t11.5 -1t9.5 -1z" />
<glyph unicode="&#xfd;" horiz-adv-x="400" d="M322 79l56 12q21 2 19 -6q-4 -16 -57 -35l-32 -10q-32 -85 -59 -133q-105 -179 -335 -228q-44 -10 -73.5 35.5t-7.5 110.5q20 59 128 123t279 110q20 49 43 139q-13 -10 -43 -33.5t-42 -32.5t-31.5 -20.5t-35.5 -15.5q-34 -10 -69.5 17.5t-26.5 63.5q7 22 39.5 60 t62.5 56q36 22 61 17q11 -3 13 -8t-0.5 -10t-9.5 -15q-2 -2 -3 -4q-84 -105 -46 -103q9 1 25 7q42 17 122 107q1 8 2.5 13t3.5 7t5 0q1 0 16.5 -6.5t23 -11t15.5 -14.5t7 -23q-6 -45 -50 -169zM177 -73q28 46 44 85q-121 -39 -209 -96q-91 -60 -122 -122q-19 -40 3 -43h5 q25 2 73.5 20t111 60.5t94.5 95.5zM286 418q59 59 75 98q0 2 1 3q3 4 11 3.5t19 -9.5t16 -23q8 -28 -28 -64q-49 -51 -83 -58q-47 -14 -48 7q0 10 37 43z" />
<glyph unicode="&#xfe;" horiz-adv-x="412" d="M204 326q79 43 137 39.5t89 -42.5t21 -93q-8 -46 -33 -88.5t-72 -83t-128.5 -68t-189.5 -36.5q0 -2 -1 -2q-22 -36 -67 -159q-15 -39 -29 -59q-28 -40 -42 -39q-22 2 -34.5 46.5t-0.5 66.5q5 8 119 239t139 277q32 57 79.5 148.5t51.5 104.5q14 30 57 5q12 -7 19 -20.5 t2 -21.5l-21 -38q-21 -37 -49.5 -89t-46.5 -87zM323 207q13 80 -47 76q-47 -4 -122 -55q-80 -165 -105 -222q117 23 188 69t86 132z" />
<glyph unicode="&#xff;" horiz-adv-x="400" d="M322 79l56 12q21 2 19 -6q-4 -16 -57 -35l-32 -10q-32 -85 -59 -133q-105 -179 -335 -228q-44 -10 -73.5 35.5t-7.5 110.5q20 59 128 123t279 110q20 49 43 139q-13 -10 -43 -33.5t-42 -32.5t-31.5 -20.5t-35.5 -15.5q-34 -10 -69.5 17.5t-26.5 63.5q7 22 39.5 60 t62.5 56q36 22 61 17q11 -3 13 -8t-0.5 -10t-9.5 -15q-2 -2 -3 -4q-84 -105 -46 -103q9 1 25 7q42 17 122 107q1 8 2.5 13t3.5 7t5 0q1 0 16.5 -6.5t23 -11t15.5 -14.5t7 -23q-6 -45 -50 -169zM177 -73q28 46 44 85q-121 -39 -209 -96q-91 -60 -122 -122q-19 -40 3 -43h5 q25 2 73.5 20t111 60.5t94.5 95.5zM213 478q2 0 9.5 0.5t13 0.5t11.5 -1t9.5 -3.5t3.5 -6.5q0 -19 -18.5 -44t-37.5 -30q-20 -5 -26.5 -0.5t-14.5 21.5q-14 36 7 57q5 5 11.5 6.5t10.5 1.5t11.5 -1t9.5 -1zM349 478q2 0 9.5 0.5t13 0.5t11.5 -1t9.5 -3.5t3.5 -6.5 q0 -19 -18.5 -44t-37.5 -30q-20 -5 -26.5 -0.5t-14.5 21.5q-14 36 7 57q5 5 11.5 6.5t10.5 1.5t11.5 -1t9.5 -1z" />
<glyph unicode="&#x152;" horiz-adv-x="889" d="M1222 719q27 -8 19.5 -35t-40.5 -41q-17 -7 -33 -7.5t-43 3t-51 3.5q-9 0 -31 -1t-33 -2t-28.5 -3.5t-33 -8t-30.5 -13.5q-93 -54 -178 -161q95 4 268 39q19 13 33 -9q17 -27 -5 -55q-16 -21 -51 -31q-51 -14 -110.5 -19.5t-101.5 -3.5t-89 0q-44 -68 -73 -142 q-22 -52 -9 -115t53 -80q48 -17 110 -5.5t95 36.5q34 24 31 5q-4 -25 -52 -74q-44 -44 -87 -62q-41 -19 -96 -16.5t-85 26.5q-63 48 -81 105q-114 -81 -231 -104q-34 -15 -80.5 -16.5t-79.5 13.5q-23 5 -30 19q-17 14 -27.5 24t-26.5 35t-22.5 51.5t-5 70t16.5 94.5 q37 130 145.5 244t254.5 186q58 48 125 57q8 1 23 1l12 3q16 5 44.5 -18t48 -49.5t12.5 -30.5q21 -39 33 -87q39 38 77 67h-1q-19 -13 -36 7q-20 22 -1 47q15 19 50 28q24 7 227 23q9 0 39 2q126 9 165 0zM396 91q55 42 91 93l10 44q18 66 61 137q-9 -1 -20.5 -2t-19 -2 t-12.5 -2q-15 -2 -24.5 11t-0.5 32q12 26 36.5 36.5t83.5 12.5q7 72 -19.5 115t-79.5 43q-46 0 -94 -23q-98 -57 -173 -146t-117 -197q-22 -52 -9 -115t53 -80q48 -16 108.5 -5t96.5 36q25 19 29 12z" />
<glyph unicode="&#x153;" horiz-adv-x="488" d="M482 153q44 26 42 5q-2 -19 -27 -39q-2 -2 -5 -4q-34 -21 -131 -68.5t-143 -57.5q-61 -12 -85 32q-45 -22 -85 -14q-30 6 -44.5 31.5t-11.5 53.5t17 48q79 111 121 120l11 3q-5 8 -11 12q-24 19 -3 19q16 1 29 -8q41 -32 58 -57q8 10 13 14q63 59 114 52q21 -2 44.5 -31 t27.5 -59q2 -27 -27 -50t-71 -43q-4 -2 -18.5 -9t-19.5 -9t-16 -5t-17 -1t-14 7.5t-14 15.5q-6 -8 -9 -17t4.5 -17.5t31.5 -7.5q39 2 113.5 28t125.5 56zM324 211q-34 -13 -63 -48q19 5 39.5 18t23.5 30zM91 104q-2 -11 23 2q21 12 34 30q11 14 11 48q-21 -19 -43.5 -45.5 t-24.5 -34.5z" />
<glyph unicode="&#x178;" horiz-adv-x="438" d="M598 786q34 -54 -37 -181q-17 -30 -110.5 -251.5t-124.5 -265.5q-83 -117 -129.5 -166.5t-67.5 -43.5t-55.5 31t-30.5 35q3 8 16 18.5t32.5 24t56 50t76.5 87.5q78 102 217 426q-88 -133 -153 -226q-30 -42 -50 -55t-44 -11q-58 0 -78 60q-12 33 -53 207q-25 108 -34 150 q-22 10 -26.5 34t4.5 45.5t20 28.5q21 6 30.5 3.5t34.5 -14.5q41 -19 60.5 -37t19 -31.5t-1.5 -27.5q-4 -17 22 -156q8 -48 26 -137q15 -32 71.5 31.5t126 165t80.5 113.5l6 7q9 21 18 43l8 22q13 31 32.5 38.5t37.5 -17.5zM293 923q2 0 9.5 0.5t13 0.5t11.5 -1t9.5 -3.5 t3.5 -6.5q0 -19 -18.5 -44t-37.5 -30q-20 -5 -26.5 -0.5t-14.5 21.5q-14 36 7 57q5 5 11.5 6.5t10.5 1.5t11.5 -1t9.5 -1zM429 923q2 0 9.5 0.5t13 0.5t11.5 -1t9.5 -3.5t3.5 -6.5q0 -19 -18.5 -44t-37.5 -30q-20 -5 -26.5 -0.5t-14.5 21.5q-14 36 7 57q5 5 11.5 6.5 t10.5 1.5t11.5 -1t9.5 -1z" />
<glyph unicode="&#x2c6;" horiz-adv-x="329" d="M54 557q-14 6 -8 28q22 39 33 51q58 65 94 82q30 14 48 11t37.5 -28t21.5 -59q1 -33 -17 -62q-8 -13 -24 -20t-28 -6t-12 6v3q10 33 9.5 56.5t-4 30.5t-10.5 17q-50 -24 -104 -87q-22 -27 -36 -23z" />
<glyph unicode="&#x2dc;" horiz-adv-x="291" d="M55 656q8 16 25.5 28t33.5 12q25 0 49 -32q12 -13 25 -13t18 7q2 2 4.5 6t4.5 6.5t4 5.5t4 4.5t4 2.5t4.5 0.5t4.5 -1.5q13 -8 0 -42q-6 -19 -30 -29t-48 0q-16 7 -27 19.5t-23 10.5q-10 -1 -25.5 -13.5t-21.5 -9.5q-21 10 -6 38z" />
<glyph unicode="&#x2000;" horiz-adv-x="474" />
<glyph unicode="&#x2001;" horiz-adv-x="949" />
<glyph unicode="&#x2002;" horiz-adv-x="474" />
<glyph unicode="&#x2003;" horiz-adv-x="949" />
<glyph unicode="&#x2004;" horiz-adv-x="316" />
<glyph unicode="&#x2005;" horiz-adv-x="237" />
<glyph unicode="&#x2006;" horiz-adv-x="158" />
<glyph unicode="&#x2007;" horiz-adv-x="158" />
<glyph unicode="&#x2008;" horiz-adv-x="118" />
<glyph unicode="&#x2009;" horiz-adv-x="189" />
<glyph unicode="&#x200a;" horiz-adv-x="52" />
<glyph unicode="&#x2010;" horiz-adv-x="472" d="M57 211q-12 10 -7 45t26 37q16 2 57 -5t65 -7q174 0 190 6q9 6 23 1.5t19 -18.5q1 -2 6.5 -10.5t5 -12.5t-4 -11t-19 -12.5t-42.5 -10.5q-48 -10 -159 -12q-17 -1 -45 -3t-41 -2.5t-30 0.5t-27 4.5t-17 10.5z" />
<glyph unicode="&#x2011;" horiz-adv-x="472" d="M57 211q-12 10 -7 45t26 37q16 2 57 -5t65 -7q174 0 190 6q9 6 23 1.5t19 -18.5q1 -2 6.5 -10.5t5 -12.5t-4 -11t-19 -12.5t-42.5 -10.5q-48 -10 -159 -12q-17 -1 -45 -3t-41 -2.5t-30 0.5t-27 4.5t-17 10.5z" />
<glyph unicode="&#x2012;" horiz-adv-x="472" d="M57 211q-12 10 -7 45t26 37q16 2 57 -5t65 -7q174 0 190 6q9 6 23 1.5t19 -18.5q1 -2 6.5 -10.5t5 -12.5t-4 -11t-19 -12.5t-42.5 -10.5q-48 -10 -159 -12q-17 -1 -45 -3t-41 -2.5t-30 0.5t-27 4.5t-17 10.5z" />
<glyph unicode="&#x2013;" horiz-adv-x="489" d="M57 211q-12 10 -7 45t26 37q16 2 57 -5t65 -7q174 0 190 6q9 6 23 1.5t19 -18.5q1 -2 6.5 -10.5t5 -12.5t-4 -11t-19 -12.5t-42.5 -10.5q-48 -10 -159 -12q-17 -1 -45 -3t-41 -2.5t-30 0.5t-27 4.5t-17 10.5z" />
<glyph unicode="&#x2014;" horiz-adv-x="616" d="M57 211q-12 10 -7 45t26 37q16 2 87.5 -5t94.5 -7q236 0 250 6q9 6 23 1.5t19 -18.5q1 -2 6.5 -10.5t5 -12.5t-4 -11t-19 -12.5t-42.5 -10.5q-28 -6 -69.5 -8t-87.5 -2.5t-62 -1.5q-59 -6 -131.5 -6t-88.5 16z" />
<glyph unicode="&#x2018;" horiz-adv-x="241" d="M71 498q-1 15 10 52q10 35 48 66.5t54 33.5q22 2 33.5 -14t-7.5 -32q-3 -3 -8 -1t-14.5 -3t-17.5 -18q-15 -24 -7 -76l2 -9q9 -30 -2 -39q-19 -14 -42.5 -7.5t-38.5 24.5q-11 14 -10 23z" />
<glyph unicode="&#x2019;" horiz-adv-x="241" d="M220 601q1 -15 -10 -52q-10 -35 -48 -66.5t-54 -33.5q-22 -4 -33 13.5t7 32.5q1 1 7.5 0.5t15 4t17.5 17.5q15 24 7 76l-2 9q-9 30 2 39q19 14 42.5 7.5t38.5 -24.5q11 -14 10 -23z" />
<glyph unicode="&#x201a;" horiz-adv-x="492" d="M311 40q1 -15 -10 -52q-10 -35 -48 -66.5t-54 -33.5q-22 -4 -33 13.5t7 32.5q1 1 7.5 0.5t15 4t17.5 17.5q15 24 7 76l-2 9q-9 30 2 39q19 14 42.5 7.5t38.5 -24.5q11 -14 10 -23z" />
<glyph unicode="&#x201c;" horiz-adv-x="391" d="M71 498q-1 15 10 52q10 35 48 66.5t54 33.5q22 2 33.5 -14t-7.5 -32q-3 -3 -8 -1t-14.5 -3t-17.5 -18q-15 -24 -7 -76l2 -9q9 -30 -2 -39q-19 -14 -42.5 -7.5t-38.5 24.5q-11 14 -10 23zM221 498q-1 15 10 52q10 35 48 66.5t54 33.5q22 2 33.5 -14t-7.5 -32q-3 -3 -8 -1 t-14.5 -3t-17.5 -18q-15 -24 -7 -76l2 -9q9 -30 -2 -39q-19 -14 -42.5 -7.5t-38.5 24.5q-11 14 -10 23z" />
<glyph unicode="&#x201d;" horiz-adv-x="391" d="M220 591q1 -15 -10 -52q-10 -35 -48 -66.5t-54 -33.5q-22 -4 -33 13.5t7 32.5q1 1 7.5 0.5t15 4t17.5 17.5q15 24 7 76l-2 9q-9 30 2 39q19 14 42.5 7.5t38.5 -24.5q11 -14 10 -23zM360 614q11 -14 10 -23q1 -15 -10 -52q-10 -35 -48 -66.5t-54 -33.5q-22 -4 -33 13.5 t7 32.5q1 1 7.5 0.5t15 4t17.5 17.5q15 24 7 76l-2 9q-9 30 2 39q19 14 42.5 7.5t38.5 -24.5z" />
<glyph unicode="&#x201e;" horiz-adv-x="492" d="M240 50q1 -15 -10 -52q-10 -35 -48 -66.5t-54 -33.5q-22 -4 -33 13.5t7 32.5q1 1 7.5 0.5t15 4t17.5 17.5q15 24 7 76l-2 9q-9 30 2 39q19 14 42.5 7.5t38.5 -24.5q11 -14 10 -23zM380 73q11 -14 10 -23q1 -15 -10 -52q-10 -35 -48 -66.5t-54 -33.5q-22 -4 -33 13.5 t7 32.5q1 1 7.5 0.5t15 4t17.5 17.5q15 24 7 76l-2 9q-9 30 2 39q19 14 42.5 7.5t38.5 -24.5z" />
<glyph unicode="&#x2022;" horiz-adv-x="300" d="M165 260l7 2l21 -11q47 -32 37 -70q-9 -36 -47 -60t-69 -18q-28 5 -33 35t9 47q47 69 75 75z" />
<glyph unicode="&#x2026;" horiz-adv-x="597" d="M45 68q18 6 46.5 -1.5t42.5 -23.5q12 -17 10 -25t-15 -21q-11 -11 -27.5 -15t-28.5 1q-6 3 -10 8t-5.5 9t-3 11.5t-2.5 9.5q-1 1 -4 8.5t-5 12t-3.5 11t0 10.5t5.5 5zM244 68q18 6 46.5 -1.5t42.5 -23.5q12 -17 10 -25t-15 -21q-11 -11 -27.5 -15t-28.5 1q-6 3 -10 8 t-5.5 9t-3 11.5t-2.5 9.5q-1 1 -4 8.5t-5 12t-3.5 11t0 10.5t5.5 5zM443 68q18 6 46.5 -1.5t42.5 -23.5q12 -17 10 -25t-15 -21q-11 -11 -27.5 -15t-28.5 1q-6 3 -10 8t-5.5 9t-3 11.5t-2.5 9.5q-1 1 -4 8.5t-5 12t-3.5 11t0 10.5t5.5 5z" />
<glyph unicode="&#x202f;" horiz-adv-x="189" />
<glyph unicode="&#x205f;" horiz-adv-x="237" />
<glyph unicode="&#x20ac;" horiz-adv-x="483" d="M456 580q5 -4 2.5 -9t-3 -6.5t-8 -7.5t-12.5 -11q-19 -20 -60 -10q-18 15 -42 15q-41 0 -69 -38q-57 -38 -79 -106l45 6q10 2 27 4.5t25.5 4t21 3.5t19.5 2t15 -0.5t14 -2.5t11 -6q10 -7 10 -33.5t-17 -30.5q-14 -3 -47 -1t-56 0l-85 -10l-10 -43l41 6q10 2 27 4.5 t25.5 4t21 3.5t19.5 2t15 -0.5t14 -2.5t11 -6q9 -8 9.5 -34t-16.5 -30q-14 -3 -46.5 -1.5t-56.5 -0.5l-83 -9q-31 -105 17 -128q33 -16 48 -15t39 19q13 11 19 11q1 0 2 -1q20 -13 19.5 -30t-16 -36t-30 -31.5t-24.5 -18.5l-4 -3h-1q-53 -26 -99 -2q-36 10 -64 70.5 t-10 149.5q-1 0 -3 -1h-1q-8 -6 -19.5 -3.5t-17.5 13.5q-1 2 -5 6.5t-5.5 7t-1 7t5 8.5t16 9t30.5 11l16 4q2 11 11 44q-25 -11 -36 10q-1 2 -5 6.5t-5.5 7t-1.5 7t5 8.5t16.5 9t29.5 11l18 5q52 144 167 208q49 35 95 40q19 2 57 -18.5t55 -40.5z" />
<glyph unicode="&#x2122;" horiz-adv-x="624" d="M601 313q1 -1 0.5 -6t-4.5 -11.5t-9 -8.5q-6 -3 -23.5 -2.5t-27.5 5.5q-2 1 -7.5 5t-6 4.5t-4.5 5t-3.5 6.5t-2 8.5t0.5 11.5q2 33 13 82l11 57q-12 -20 -37 -53t-31 -42q-12 -18 -18.5 -26.5t-17.5 -16.5t-23 -8q-15 -2 -19 28q-2 10 7 74l9 52q-16 -20 -41.5 -71 t-31.5 -59q-5 -7 -9.5 -18.5t-6.5 -15.5t-9.5 -8t-16.5 4q-23 13 1 49q3 4 15 24.5t26.5 46t20.5 35.5q11 19 45 62.5t40 48.5q8 7 22 0q33 -17 23 -46q-2 -4 -10 -56q-3 -16 -7 -48q20 20 44 52.5t40 54.5t21 24q11 6 24.5 -2t18.5 -30q3 -15 -11.5 -84.5t-16.5 -85.5 q0 -25 12 -42zM324 564q-14 0 -23 -1q-68 -118 -81 -146q-35 -70 -35 -101q-3 -15 -15 -14q-14 0 -32 12.5t-12 35.5q8 22 100 207q-20 -2 -83 -16q-3 -9 -9 5q-11 25 7 39q7 5 18 7q50 8 92 11q9 13 14 15q13 4 31.5 0t22.5 -10q9 0 23 2q29 3 38 10q3 3 6.5 1.5t5.5 -6.5 t0 -13q-11 -37 -68 -38z" />
<glyph unicode="&#x25fc;" horiz-adv-x="315" d="M0 315h315v-315h-315v315z" />
</font>
</defs>
</svg>
